{
  "accessors": [
    {
      "bufferView": 2,
      "componentType": 5126,
      "count": 1366,
      "max": [
        0.26358315348625183,
        -0.034685585647821426,
        1.1586229801177979
      ],
      "min": [
        -0.29169741272926331,
        -0.59066909551620483,
        0.60407924652099609
      ],
      "type": "VEC3"
    },
    {
      "bufferView": 2,
      "byteOffset": 16392,
      "componentType": 5126,
      "count": 1366,
      "max": [
        0.99949932098388672,
        0.99955809116363525,
        0.99910974502563477
      ],
      "min": [
        -0.99961709976196289,
        -0.99963486194610596,
        -0.99773848056793213
      ],
      "type": "VEC3"
    },
    {
      "bufferView": 3,
      "componentType": 5126,
      "count": 1366,
      "max": [
        0.7681618332862854,
        0.92820632457733154,
        0.95422744750976562,
        1
      ],
      "min": [
        -0.97929966449737549,
        -0.9829438328742981,
        -0.93229550123214722,
        1
      ],
      "type": "VEC4"
    },
    {
      "bufferView": 1,
      "componentType": 5126,
      "count": 1366,
      "max": [
        0.95829343795776367,
        0.93853861093521118
      ],
      "min": [
        0.04237813875079155,
        0.69184303283691406
      ],
      "type": "VEC2"
    },
    {
      "bufferView": 0,
      "componentType": 5125,
      "count": 7122,
      "max": [
        1365
      ],
      "min": [
        0
      ],
      "type": "SCALAR"
    },
    {
      "bufferView": 2,
      "byteOffset": 32784,
      "componentType": 5126,
      "count": 1432,
      "max": [
        0.33184200525283813,
        0.42395588755607605,
        1.1297948360443115
      ],
      "min": [
        -0.2200995534658432,
        -0.13149987161159515,
        0.57440364360809326
      ],
      "type": "VEC3"
    },
    {
      "bufferView": 2,
      "byteOffset": 49968,
      "componentType": 5126,
      "count": 1432,
      "max": [
        0.9993584156036377,
        0.99860244989395142,
        0.99845355749130249
      ],
      "min": [
        -0.99938094615936279,
        -0.99967324733734131,
        -0.99926793575286865
      ],
      "type": "VEC3"
    },
    {
      "bufferView": 3,
      "byteOffset": 21856,
      "componentType": 5126,
      "count": 1432,
      "max": [
        0.99865883588790894,
        0.9186139702796936,
        0.93582886457443237,
        1
      ],
      "min": [
        -0.97598415613174438,
        -0.79301184415817261,
        -0.9941830039024353,
        1
      ],
      "type": "VEC4"
    },
    {
      "bufferView": 1,
      "byteOffset": 10928,
      "componentType": 5126,
      "count": 1432,
      "max": [
        0.97334122657775879,
        0.94385963678359985
      ],
      "min": [
        0.10676123946905136,
        0.14783506095409393
      ],
      "type": "VEC2"
    },
    {
      "bufferView": 0,
      "byteOffset": 28488,
      "componentType": 5125,
      "count": 7332,
      "max": [
        1431
      ],
      "min": [
        0
      ],
      "type": "SCALAR"
    },
    {
      "bufferView": 2,
      "byteOffset": 67152,
      "componentType": 5126,
      "count": 1519,
      "max": [
        0.050910849124193192,
        0.333261638879776,
        0.51252025365829468
      ],
      "min": [
        -0.25661462545394897,
        -0.54001367092132568,
        0.28828972578048706
      ],
      "type": "VEC3"
    },
    {
      "bufferView": 2,
      "byteOffset": 85380,
      "componentType": 5126,
      "count": 1519,
      "max": [
        0.99739980697631836,
        0.99915015697479248,
        0.99818164110183716
      ],
      "min": [
        -0.99962639808654785,
        -0.99791991710662842,
        -0.99868655204772949
      ],
      "type": "VEC3"
    },
    {
      "bufferView": 3,
      "byteOffset": 44768,
      "componentType": 5126,
      "count": 1519,
      "max": [
        0.99892032146453857,
        0.99693983793258667,
        0.99981236457824707,
        1
      ],
      "min": [
        -0.99677866697311401,
        -0.99905681610107422,
        -0.9900825023651123,
        1
      ],
      "type": "VEC4"
    },
    {
      "bufferView": 1,
      "byteOffset": 22384,
      "componentType": 5126,
      "count": 1519,
      "max": [
        0.97134369611740112,
        0.9690326452255249
      ],
      "min": [
        0.0013624180573970079,
        0.056291520595550537
      ],
      "type": "VEC2"
    },
    {
      "bufferView": 0,
      "byteOffset": 57816,
      "componentType": 5125,
      "count": 6114,
      "max": [
        1518
      ],
      "min": [
        0
      ],
      "type": "SCALAR"
    },
    {
      "bufferView": 2,
      "byteOffset": 103608,
      "componentType": 5126,
      "count": 996,
      "max": [
        0.14663948118686676,
        0.035177692770957947,
        0.28884309530258179
      ],
      "min": [
        -0.45003828406333923,
        -0.21991169452667236,
        -0.10017013549804688
      ],
      "type": "VEC3"
    },
    {
      "bufferView": 2,
      "byteOffset": 115560,
      "componentType": 5126,
      "count": 996,
      "max": [
        0.99260598421096802,
        0.99867421388626099,
        0.99774998426437378
      ],
      "min": [
        -0.99866753816604614,
        -0.99585896730422974,
        -0.99965310096740723
      ],
      "type": "VEC3"
    },
    {
      "bufferView": 3,
      "byteOffset": 69072,
      "componentType": 5126,
      "count": 996,
      "max": [
        0.99118310213088989,
        0.99949198961257935,
        0.77169585227966309,
        1
      ],
      "min": [
        -0.97141975164413452,
        -0.99678885936737061,
        -0.98776590824127197,
        1
      ],
      "type": "VEC4"
    },
    {
      "bufferView": 1,
      "byteOffset": 34536,
      "componentType": 5126,
      "count": 996,
      "max": [
        0.95651090145111084,
        0.97427827119827271
      ],
      "min": [
        0.10112477838993073,
        0.36384949088096619
      ],
      "type": "VEC2"
    },
    {
      "bufferView": 0,
      "byteOffset": 82272,
      "componentType": 5125,
      "count": 4908,
      "max": [
        995
      ],
      "min": [
        0
      ],
      "type": "SCALAR"
    },
    {
      "bufferView": 2,
      "byteOffset": 127512,
      "componentType": 5126,
      "count": 1509,
      "max": [
        0.019646173343062401,
        0.32422551512718201,
        0.20810559391975403
      ],
      "min": [
        -0.25005930662155151,
        -0.55948138236999512,
        -0.010612074285745621
      ],
      "type": "VEC3"
    },
    {
      "bufferView": 2,
      "byteOffset": 145620,
      "componentType": 5126,
      "count": 1509,
      "max": [
        0.99844521284103394,
        0.99997973442077637,
        0.99913990497589111
      ],
      "min": [
        -0.99979627132415771,
        -0.99917876720428467,
        -0.99957787990570068
      ],
      "type": "VEC3"
    },
    {
      "bufferView": 3,
      "byteOffset": 85008,
      "componentType": 5126,
      "count": 1509,
      "max": [
        0.99931764602661133,
        0.99977672100067139,
        0.99906051158905029,
        1
      ],
      "min": [
        -0.99822890758514404,
        -0.99720638990402222,
        -0.99732822179794312,
        1
      ],
      "type": "VEC4"
    },
    {
      "bufferView": 1,
      "byteOffset": 42504,
      "componentType": 5126,
      "count": 1509,
      "max": [
        0.97029805183410645,
        0.97078162431716919
      ],
      "min": [
        0.013400590047240257,
        0.00050738482968881726
      ],
      "type": "VEC2"
    },
    {
      "bufferView": 0,
      "byteOffset": 101904,
      "componentType": 5125,
      "count": 6138,
      "max": [
        1508
      ],
      "min": [
        0
      ],
      "type": "SCALAR"
    },
    {
      "bufferView": 2,
      "byteOffset": 163728,
      "componentType": 5126,
      "count": 1262,
      "max": [
        0.42832005023956299,
        0.46664711833000183,
        1.5072454214096069
      ],
      "min": [
        0.034855339676141739,
        -0.62309223413467407,
        1.1805044412612915
      ],
      "type": "VEC3"
    },
    {
      "bufferView": 2,
      "byteOffset": 178872,
      "componentType": 5126,
      "count": 1262,
      "max": [
        0.99969172477722168,
        0.99413436651229858,
        0.99970114231109619
      ],
      "min": [
        -0.9999924898147583,
        -0.99681085348129272,
        -0.9997563362121582
      ],
      "type": "VEC3"
    },
    {
      "bufferView": 3,
      "byteOffset": 109152,
      "componentType": 5126,
      "count": 1262,
      "max": [
        0.9985651969909668,
        0.84013909101486206,
        0.94315320253372192,
        1
      ],
      "min": [
        -0.99998056888580322,
        -0.99791640043258667,
        -0.99623149633407593,
        1
      ],
      "type": "VEC4"
    },
    {
      "bufferView": 1,
      "byteOffset": 54576,
      "componentType": 5126,
      "count": 1262,
      "max": [
        0.96870064735412598,
        0.95300382375717163
      ],
      "min": [
        0.00050738482968881726,
        0.00050738482968881726
      ],
      "type": "VEC2"
    },
    {
      "bufferView": 0,
      "byteOffset": 126456,
      "componentType": 5125,
      "count": 5904,
      "max": [
        1261
      ],
      "min": [
        0
      ],
      "type": "SCALAR"
    },
    {
      "bufferView": 2,
      "byteOffset": 194016,
      "componentType": 5126,
      "count": 5658,
      "max": [
        1.3948417901992798,
        0.99697035551071167,
        3.2713718414306641
      ],
      "min": [
        -1.1410350799560547,
        -0.99656558036804199,
        -3.3065657615661621
      ],
      "type": "VEC3"
    },
    {
      "bufferView": 2,
      "byteOffset": 261912,
      "componentType": 5126,
      "count": 5658,
      "max": [
        0.99987518787384033,
        0.99999988079071045,
        0.99983203411102295
      ],
      "min": [
        -0.99983906745910645,
        -0.9999767541885376,
        -0.99988937377929688
      ],
      "type": "VEC3"
    },
    {
      "bufferView": 3,
      "byteOffset": 129344,
      "componentType": 5126,
      "count": 5658,
      "max": [
        0.99986237287521362,
        1,
        0.9929841160774231,
        1
      ],
      "min": [
        -0.98194682598114014,
        -0.99992072582244873,
        -0.99270260334014893,
        1
      ],
      "type": "VEC4"
    },
    {
      "bufferView": 1,
      "byteOffset": 64672,
      "componentType": 5126,
      "count": 5658,
      "max": [
        0.97112452983856201,
        0.99949264526367188
      ],
      "min": [
        0.00050738482968881726,
        0.00050738482968881726
      ],
      "type": "VEC2"
    },
    {
      "bufferView": 0,
      "byteOffset": 150072,
      "componentType": 5125,
      "count": 30192,
      "max": [
        5657
      ],
      "min": [
        0
      ],
      "type": "SCALAR"
    }
  ],
  "asset": {
    "extras": {
      "author": "André Nogueira (https://sketchfab.com/andrenogueira.info)",
      "license": "CC-BY-4.0 (http://creativecommons.org/licenses/by/4.0/)",
      "source": "https://sketchfab.com/3d-models/pickle-rick-b0c8fc73260f408b893ae6515a41e6ae",
      "title": "Pickle Rick"
    },
    "generator": "Sketchfab-7.44.0",
    "version": "2.0"
  },
  "bufferViews": [
    {
      "buffer": 0,
      "byteLength": 270840,
      "byteOffset": 0,
      "name": "floatBufferViews",
      "crosshair1": 34963
    },
    {
      "buffer": 0,
      "byteLength": 109936,
      "byteOffset": 270840,
      "byteStride": 8,
      "name": "floatBufferViews",
      "crosshair1": 34962
    },
    {
      "buffer": 0,
      "byteLength": 329808,
      "byteOffset": 380776,
      "byteStride": 12,
      "name": "floatBufferViews",
      "crosshair1": 34962
    },
    {
      "buffer": 0,
      "byteLength": 219872,
      "byteOffset": 710584,
      "byteStride": 16,
      "name": "floatBufferViews",
      "crosshair1": 34962
    }
  ],
  "buffers": [
    {
      "byteLength": 930456,
      "uri": "scene.bin"
    }
  ],
  "images": [
    {
      "uri": "textures/Scene_-_Root_baseColor.png"
    },
    {
      "uri": "textures/Scene_-_Root_metallicRoughness.png"
    },
    {
      "uri": "textures/Scene_-_Root_normal.png"
    }
  ],
  "materials": [
    {
      "doubleSided": true,
      "name": "Scene_-_Root",
      "normalTexture": {
        "index": 2,
        "scale": 0.60537347560975607,
        "texCoord": 0
      },
      "occlusionTexture": {
        "index": 1,
        "strength": 1,
        "texCoord": 0
      },
      "pbrMetallicRoughness": {
        "baseColorFactor": [
          1,
          1,
          1,
          1
        ],
        "baseColorTexture": {
          "index": 0,
          "texCoord": 0
        },
        "metallicFactor": 1,
        "metallicRoughnessTexture": {
          "index": 1,
          "texCoord": 0
        },
        "roughnessFactor": 1
      }
    }
  ],
  "meshes": [
    {
      "name": "r_eye_low__0",
      "primitives": [
        {
          "attributes": {
            "NORMAL": 1,
            "POSITION": 0,
            "TANGENT": 2,
            "TEXCOORD_0": 3
          },
          "indices": 4,
          "material": 0,
          "mode": 4
        }
      ]
    },
    {
      "name": "l_eye_low__0",
      "primitives": [
        {
          "attributes": {
            "NORMAL": 6,
            "POSITION": 5,
            "TANGENT": 7,
            "TEXCOORD_0": 8
          },
          "indices": 9,
          "material": 0,
          "mode": 4
        }
      ]
    },
    {
      "name": "upperTeeth_low__0",
      "primitives": [
        {
          "attributes": {
            "NORMAL": 11,
            "POSITION": 10,
            "TANGENT": 12,
            "TEXCOORD_0": 13
          },
          "indices": 14,
          "material": 0,
          "mode": 4
        }
      ]
    },
    {
      "name": "tongue_low__0",
      "primitives": [
        {
          "attributes": {
            "NORMAL": 16,
            "POSITION": 15,
            "TANGENT": 17,
            "TEXCOORD_0": 18
          },
          "indices": 19,
          "material": 0,
          "mode": 4
        }
      ]
    },
    {
      "name": "lowerTeeth_low__0",
      "primitives": [
        {
          "attributes": {
            "NORMAL": 21,
            "POSITION": 20,
            "TANGENT": 22,
            "TEXCOORD_0": 23
          },
          "indices": 24,
          "material": 0,
          "mode": 4
        }
      ]
    },
    {
      "name": "eyebrows_low__0",
      "primitives": [
        {
          "attributes": {
            "NORMAL": 26,
            "POSITION": 25,
            "TANGENT": 27,
            "TEXCOORD_0": 28
          },
          "indices": 29,
          "material": 0,
          "mode": 4
        }
      ]
    },
    {
      "name": "corpo2_low__0",
      "primitives": [
        {
          "attributes": {
            "NORMAL": 31,
            "POSITION": 30,
            "TANGENT": 32,
            "TEXCOORD_0": 33
          },
          "indices": 34,
          "material": 0,
          "mode": 4
        }
      ]
    }
  ],
  "nodes": [
    {
      "children": [
        1
      ],
      "name": "RootNode (gltf orientation matrix)",
      "rotation": [
        -0.70710678118654746,
        -0,
        -0,
        0.70710678118654757
      ]
    },
    {
      "children": [
        2
      ],
      "matrix": [
        1,
        0,
        0,
        0,
        0,
        1,
        0,
        0,
        0,
        0,
        1,
        0,
        0,
        1.1465495845186524e-05,
        -1.3803922911392874e-06,
        1
      ],
      "name": "RootNode (model correction matrix)"
    },
    {
      "children": [
        3
      ],
      "matrix": [
        1,
        0,
        0,
        0,
        0,
        0,
        1,
        0,
        0,
        -1,
        0,
        0,
        0,
        0,
        0,
        1
      ],
      "name": "6daa5a584a1e43ebb504c30bc83e1bad.fbx"
    },
    {
      "children": [
        4,
        6,
        8,
        10,
        12,
        14,
        16
      ],
      "name": "RootNode"
    },
    {
      "children": [
        5
      ],
      "matrix": [
        112.49901187802864,
        7.8664866159493831,
        -18.625173629827952,
        0,
        -18.971664480733882,
        4.6708516091433463,
        -112.61910131868225,
        0,
        -6.9896038282271844,
        113.93467267966254,
        5.9028740251110721,
        0,
        82.311470031738281,
        66.342910766601562,
        356.63259887695312,
        1
      ],
      "name": "r_eye_low"
    },
    {
      "mesh": 0,
      "name": "r_eye_low__0"
    },
    {
      "children": [
        7
      ],
      "matrix": [
        112.49901187802864,
        7.8664866159493831,
        -18.625173629827952,
        0,
        -18.971664480733882,
        4.6708516091433463,
        -112.61910131868225,
        0,
        -6.9896038282271844,
        113.93467267966254,
        5.9028740251110721,
        0,
        82.311470031738281,
        66.342910766601562,
        356.63259887695312,
        1
      ],
      "name": "l_eye_low"
    },
    {
      "mesh": 1,
      "name": "l_eye_low__0"
    },
    {
      "children": [
        9
      ],
      "matrix": [
        112.49901187802864,
        7.8664866159493831,
        -18.625173629827952,
        0,
        -18.971664480733882,
        4.6708516091433463,
        -112.61910131868225,
        0,
        -6.9896038282271844,
        113.93467267966254,
        5.9028740251110721,
        0,
        82.311470031738281,
        66.342910766601562,
        356.63259887695312,
        1
      ],
      "name": "upperTeeth_low"
    },
    {
      "mesh": 2,
      "name": "upperTeeth_low__0"
    },
    {
      "children": [
        11
      ],
      "matrix": [
        112.49901187802864,
        7.8664866159493831,
        -18.625173629827952,
        0,
        -18.971664480733882,
        4.6708516091433463,
        -112.61910131868225,
        0,
        -6.9896038282271844,
        113.93467267966254,
        5.9028740251110721,
        0,
        82.311470031738281,
        66.342910766601562,
        356.63259887695312,
        1
      ],
      "name": "tongue_low"
    },
    {
      "mesh": 3,
      "name": "tongue_low__0"
    },
    {
      "children": [
        13
      ],
      "matrix": [
        112.49901187802864,
        7.8664866159493831,
        -18.625173629827952,
        0,
        -18.971664480733882,
        4.6708516091433463,
        -112.61910131868225,
        0,
        -6.9896038282271844,
        113.93467267966254,
        5.9028740251110721,
        0,
        82.311470031738281,
        66.342910766601562,
        356.63259887695312,
        1
      ],
      "name": "lowerTeeth_low"
    },
    {
      "mesh": 4,
      "name": "lowerTeeth_low__0"
    },
    {
      "children": [
        15
      ],
      "matrix": [
        112.49901187802864,
        7.8664866159493831,
        -18.625173629827952,
        0,
        -18.971664480733882,
        4.6708516091433463,
        -112.61910131868225,
        0,
        -6.9896038282271844,
        113.93467267966254,
        5.9028740251110721,
        0,
        82.311470031738281,
        66.342910766601562,
        356.63259887695312,
        1
      ],
      "name": "eyebrows_low"
    },
    {
      "mesh": 5,
      "name": "eyebrows_low__0"
    },
    {
      "children": [
        17
      ],
      "matrix": [
        100,
        0,
        0,
        0,
        0,
        -1.6292067939183141e-05,
        -99.999999999998678,
        0,
        0,
        99.999999999998678,
        -1.6292067939183141e-05,
        0,
        0,
        0,
        370.759033203125,
        1
      ],
      "name": "corpo2_low"
    },
    {
      "mesh": 6,
      "name": "corpo2_low__0"
    }
  ],
  "samplers": [
    {
      "magFilter": 9729,
      "minFilter": 9987,
      "wrapS": 10497,
      "wrapT": 10497
    }
  ],
  "scene": 0,
  "scenes": [
    {
      "name": "OSG_Scene",
      "nodes": [
        0
      ]
    }
  ],
  "textures": [
    {
      "sampler": 0,
      "source": 0
    },
    {
      "sampler": 0,
      "source": 1
    },
    {
      "sampler": 0,
      "source": 2
    }
  ]
}

