{
  "accessors": [
    {
      "bufferView": 2,
      "componentType": 5126,
      "count": 1661,
      "max": [
        26.208526611328125,
        11.272988319396973,
        49.466606140136719
      ],
      "min": [
        -26.208526611328125,
        -11.323526382446289,
        -7.5353097915649414
      ],
      "type": "VEC3"
    },
    {
      "bufferView": 2,
      "byteOffset": 19932,
      "componentType": 5126,
      "count": 1661,
      "max": [
        0.99997460842132568,
        0.99997442960739136,
        0.99856841564178467
      ],
      "min": [
        -0.99997460842132568,
        -0.99996042251586914,
        -1
      ],
      "type": "VEC3"
    },
    {
      "bufferView": 3,
      "componentType": 5126,
      "count": 1661,
      "max": [
        1,
        1,
        1,
        1
      ],
      "min": [
        1,
        1,
        1,
        1
      ],
      "type": "VEC4"
    },
    {
      "bufferView": 1,
      "componentType": 5126,
      "count": 1661,
      "max": [
        0.9880102276802063,
        0.99297702312469482
      ],
      "min": [
        0.01350087858736515,
        0.0073526594787836075
      ],
      "type": "VEC2"
    },
    {
      "bufferView": 1,
      "byteOffset": 13288,
      "componentType": 5126,
      "count": 1661,
      "max": [
        22.591297149658203,
        10.818570137023926
      ],
      "min": [
        -5.6320390701293945,
        -11.083950042724609
      ],
      "type": "VEC2"
    },
    {
      "bufferView": 0,
      "componentType": 5125,
      "count": 5820,
      "max": [
        1660
      ],
      "min": [
        0
      ],
      "type": "SCALAR"
    },
    {
      "bufferView": 2,
      "byteOffset": 39864,
      "componentType": 5126,
      "count": 225,
      "max": [
        6.9476947784423828,
        -9.0495538711547852,
        19.126579284667969
      ],
      "min": [
        -6.7296242713928223,
        -12.346480369567871,
        12.811084747314453
      ],
      "type": "VEC3"
    },
    {
      "bufferView": 2,
      "byteOffset": 42564,
      "componentType": 5126,
      "count": 225,
      "max": [
        0.9957345724105835,
        0.9995957612991333,
        0.99855327606201172
      ],
      "min": [
        -0.99504649639129639,
        -0.9975745677947998,
        -0.99783676862716675
      ],
      "type": "VEC3"
    },
    {
      "bufferView": 3,
      "byteOffset": 26576,
      "componentType": 5126,
      "count": 225,
      "max": [
        1,
        1,
        1,
        1
      ],
      "min": [
        1,
        1,
        1,
        1
      ],
      "type": "VEC4"
    },
    {
      "bufferView": 1,
      "byteOffset": 26576,
      "componentType": 5126,
      "count": 225,
      "max": [
        0.93987661600112915,
        0.99147975444793701
      ],
      "min": [
        0.75789791345596313,
        0.88553166389465332
      ],
      "type": "VEC2"
    },
    {
      "bufferView": 1,
      "byteOffset": 28376,
      "componentType": 5126,
      "count": 225,
      "max": [
        6.9030351638793945,
        3.1613073348999023
      ],
      "min": [
        -6.7742838859558105,
        -3.1328918933868408
      ],
      "type": "VEC2"
    },
    {
      "bufferView": 0,
      "byteOffset": 23280,
      "componentType": 5125,
      "count": 1152,
      "max": [
        224
      ],
      "min": [
        0
      ],
      "type": "SCALAR"
    }
  ],
  "asset": {
    "extras": {
      "author": "PlayToddlers (https://sketchfab.com/slopes)",
      "license": "CC-BY-4.0 (http://creativecommons.org/licenses/by/4.0/)",
      "source": "https://sketchfab.com/3d-models/alien-big-9e46463f161c4259aeb6ff92efeefae0",
      "title": "Alien Big"
    },
    "generator": "Sketchfab-8.55.0",
    "version": "2.0"
  },
  "bufferViews": [
    {
      "buffer": 0,
      "byteLength": 27888,
      "byteOffset": 0,
      "name": "floatBufferViews",
      "crosshair1": 34963
    },
    {
      "buffer": 0,
      "byteLength": 30176,
      "byteOffset": 27888,
      "byteStride": 8,
      "name": "floatBufferViews",
      "crosshair1": 34962
    },
    {
      "buffer": 0,
      "byteLength": 45264,
      "byteOffset": 58064,
      "byteStride": 12,
      "name": "floatBufferViews",
      "crosshair1": 34962
    },
    {
      "buffer": 0,
      "byteLength": 30176,
      "byteOffset": 103328,
      "byteStride": 16,
      "name": "floatBufferViews",
      "crosshair1": 34962
    }
  ],
  "buffers": [
    {
      "byteLength": 133504,
      "uri": "scene.bin"
    }
  ],
  "images": [
    {
      "uri": "textures/material_baseColor.png"
    }
  ],
  "materials": [
    {
      "doubleSided": true,
      "emissiveFactor": [
        0,
        0,
        0
      ],
      "name": "material",
      "pbrMetallicRoughness": {
        "baseColorFactor": [
          1,
          1,
          1,
          1
        ],
        "baseColorTexture": {
          "index": 0,
          "texCoord": 0
        },
        "metallicFactor": 0,
        "roughnessFactor": 0.89297135964975516
      }
    },
    {
      "doubleSided": true,
      "emissiveFactor": [
        0,
        0,
        0
      ],
      "name": "Pink",
      "pbrMetallicRoughness": {
        "baseColorFactor": [
          0.89019599999999999,
          0.054901999999999999,
          0.415686,
          1
        ],
        "metallicFactor": 0,
        "roughnessFactor": 0.89825211296811958
      }
    }
  ],
  "meshes": [
    {
      "name": "Alien_Big_Big_0",
      "primitives": [
        {
          "attributes": {
            "COLOR_0": 2,
            "NORMAL": 1,
            "POSITION": 0,
            "TEXCOORD_0": 3,
            "TEXCOORD_1": 4
          },
          "indices": 5,
          "material": 0,
          "mode": 4
        }
      ]
    },
    {
      "name": "Alien_Big_Pink_0",
      "primitives": [
        {
          "attributes": {
            "COLOR_0": 8,
            "NORMAL": 7,
            "POSITION": 6,
            "TEXCOORD_0": 9,
            "TEXCOORD_1": 10
          },
          "indices": 11,
          "material": 1,
          "mode": 4
        }
      ]
    }
  ],
  "nodes": [
    {
      "children": [
        1
      ],
      "name": "RootNode (gltf orientation matrix)",
      "rotation": [
        -0.70710678118654746,
        -0,
        -0,
        0.70710678118654757
      ]
    },
    {
      "children": [
        2
      ],
      "matrix": [
        1,
        -2.832769343193999e-16,
        2.832769343193999e-16,
        0,
        -2.832769343193999e-16,
        -1,
        -4.8795769672831353e-32,
        0,
        2.832769343193999e-16,
        -3.1450057482662597e-32,
        -1,
        0,
        3.3881317890172014e-20,
        1.0038452273875009e-06,
        -0.00023749236424919218,
        1
      ],
      "name": "RootNode (model correction matrix)"
    },
    {
      "children": [
        3
      ],
      "matrix": [
        1,
        0,
        0,
        0,
        0,
        -1,
        0,
        0,
        0,
        0,
        -1,
        0,
        0,
        0,
        0,
        1
      ],
      "name": "Alien_Big.FBX"
    },
    {
      "children": [
        4
      ],
      "name": "RootNode"
    },
    {
      "children": [
        5
      ],
      "name": "Alien_Big"
    },
    {
      "children": [
        6,
        7
      ],
      "matrix": [
        1,
        0,
        -0,
        0,
        0,
        1,
        0,
        0,
        0,
        0,
        1,
        0,
        0,
        0.53674602508544922,
        -20.965648651123047,
        1
      ],
      "name": ""
    },
    {
      "mesh": 0,
      "name": "Alien_Big_Big_0"
    },
    {
      "mesh": 1,
      "name": "Alien_Big_Pink_0"
    }
  ],
  "samplers": [
    {
      "magFilter": 9729,
      "minFilter": 9987,
      "wrapS": 10497,
      "wrapT": 10497
    }
  ],
  "scene": 0,
  "scenes": [
    {
      "name": "OSG_Scene",
      "nodes": [
        0
      ]
    }
  ],
  "textures": [
    {
      "sampler": 0,
      "source": 0
    }
  ]
}

