{
  "accessors": [
    {
      "bufferView": 2,
      "componentType": 5126,
      "count": 2878,
      "max": [
        1.011705756187439,
        1.0117387771606445,
        2.1538267135620117
      ],
      "min": [
        -1.0117052793502808,
        -1.4077935218811035,
        -0.65067118406295776
      ],
      "type": "VEC3"
    },
    {
      "bufferView": 2,
      "byteOffset": 34536,
      "componentType": 5126,
      "count": 2878,
      "max": [
        0.99995601177215576,
        1,
        1
      ],
      "min": [
        -0.99996364116668701,
        -1,
        -1
      ],
      "type": "VEC3"
    },
    {
      "bufferView": 3,
      "componentType": 5126,
      "count": 2878,
      "max": [
        1,
        0.99999845027923584,
        0.99976211786270142,
        1
      ],
      "min": [
        -1,
        -0.99970084428787231,
        -0.99997437000274658,
        -1
      ],
      "type": "VEC4"
    },
    {
      "bufferView": 1,
      "componentType": 5126,
      "count": 2878,
      "max": [
        1,
        1
      ],
      "min": [
        0,
        0
      ],
      "type": "VEC2"
    },
    {
      "bufferView": 0,
      "componentType": 5125,
      "count": 13350,
      "max": [
        2877
      ],
      "min": [
        0
      ],
      "type": "SCALAR"
    },
    {
      "bufferView": 2,
      "byteOffset": 69072,
      "componentType": 5126,
      "count": 602,
      "max": [
        0.61691915988922119,
        0.61727118492126465,
        3.0552258491516113
      ],
      "min": [
        -0.59429138898849487,
        -2.0607540607452393,
        0.75083267688751221
      ],
      "type": "VEC3"
    },
    {
      "bufferView": 2,
      "byteOffset": 76296,
      "componentType": 5126,
      "count": 602,
      "max": [
        1,
        1,
        1
      ],
      "min": [
        -1,
        -1,
        -1
      ],
      "type": "VEC3"
    },
    {
      "bufferView": 3,
      "byteOffset": 46048,
      "componentType": 5126,
      "count": 602,
      "max": [
        1,
        1,
        1,
        1
      ],
      "min": [
        -1,
        -1,
        -1,
        -1
      ],
      "type": "VEC4"
    },
    {
      "bufferView": 1,
      "byteOffset": 23024,
      "componentType": 5126,
      "count": 602,
      "max": [
        1,
        1
      ],
      "min": [
        0,
        0
      ],
      "type": "VEC2"
    },
    {
      "bufferView": 0,
      "byteOffset": 53400,
      "componentType": 5125,
      "count": 1830,
      "max": [
        601
      ],
      "min": [
        0
      ],
      "type": "SCALAR"
    },
    {
      "bufferView": 2,
      "byteOffset": 83520,
      "componentType": 5126,
      "count": 32,
      "max": [
        0.60202610492706299,
        0.23576036095619202,
        2.5957438945770264
      ],
      "min": [
        0.60202610492706299,
        -0.30102747678756714,
        2.0589561462402344
      ],
      "type": "VEC3"
    },
    {
      "bufferView": 2,
      "byteOffset": 83904,
      "componentType": 5126,
      "count": 32,
      "max": [
        1,
        0,
        -0
      ],
      "min": [
        1,
        0,
        -0
      ],
      "type": "VEC3"
    },
    {
      "bufferView": 3,
      "byteOffset": 55680,
      "componentType": 5126,
      "count": 32,
      "max": [
        0,
        8.8254779484486789e-08,
        -1,
        1
      ],
      "min": [
        0,
        -2.1725230681113317e-07,
        -1,
        1
      ],
      "type": "VEC4"
    },
    {
      "bufferView": 1,
      "byteOffset": 27840,
      "componentType": 5126,
      "count": 32,
      "max": [
        0.49000000953674316,
        0.49000000953674316
      ],
      "min": [
        0.01000000536441803,
        0.01000000536441803
      ],
      "type": "VEC2"
    },
    {
      "bufferView": 0,
      "byteOffset": 60720,
      "componentType": 5125,
      "count": 90,
      "max": [
        31
      ],
      "min": [
        0
      ],
      "type": "SCALAR"
    },
    {
      "bufferView": 2,
      "byteOffset": 84288,
      "componentType": 5126,
      "count": 595,
      "max": [
        0.84155154228210449,
        1.0652915239334106,
        2.8076479434967041
      ],
      "min": [
        -0.84155154228210449,
        -0.95293676853179932,
        0.77613425254821777
      ],
      "type": "VEC3"
    },
    {
      "bufferView": 2,
      "byteOffset": 91428,
      "componentType": 5126,
      "count": 595,
      "max": [
        1,
        1,
        0.99997365474700928
      ],
      "min": [
        -1,
        -1,
        -0.98457980155944824
      ],
      "type": "VEC3"
    },
    {
      "bufferView": 3,
      "byteOffset": 56192,
      "componentType": 5126,
      "count": 595,
      "max": [
        1,
        1,
        0.40824833512306213,
        1
      ],
      "min": [
        -1,
        -1,
        -0.61316347122192383,
        -1
      ],
      "type": "VEC4"
    },
    {
      "bufferView": 1,
      "byteOffset": 28096,
      "componentType": 5126,
      "count": 595,
      "max": [
        1,
        1
      ],
      "min": [
        8.8817841970012523e-16,
        2.2204460492503131e-16
      ],
      "type": "VEC2"
    },
    {
      "bufferView": 0,
      "byteOffset": 61080,
      "componentType": 5125,
      "count": 2616,
      "max": [
        594
      ],
      "min": [
        0
      ],
      "type": "SCALAR"
    },
    {
      "bufferView": 2,
      "byteOffset": 98568,
      "componentType": 5126,
      "count": 1909,
      "max": [
        1.0117056369781494,
        1.011738657951355,
        3.0255041122436523
      ],
      "min": [
        -1.0117051601409912,
        -1.011738657951355,
        -0.88733768463134766
      ],
      "type": "VEC3"
    },
    {
      "bufferView": 2,
      "byteOffset": 121476,
      "componentType": 5126,
      "count": 1909,
      "max": [
        1,
        1,
        1
      ],
      "min": [
        -1,
        -1,
        -1
      ],
      "type": "VEC3"
    },
    {
      "bufferView": 3,
      "byteOffset": 65712,
      "componentType": 5126,
      "count": 1909,
      "max": [
        1,
        1,
        1,
        1
      ],
      "min": [
        -1,
        -1,
        -1,
        -1
      ],
      "type": "VEC4"
    },
    {
      "bufferView": 1,
      "byteOffset": 32856,
      "componentType": 5126,
      "count": 1909,
      "max": [
        1.0000002384185791,
        1
      ],
      "min": [
        0,
        0
      ],
      "type": "VEC2"
    },
    {
      "bufferView": 0,
      "byteOffset": 71544,
      "componentType": 5125,
      "count": 7398,
      "max": [
        1908
      ],
      "min": [
        0
      ],
      "type": "SCALAR"
    },
    {
      "bufferView": 2,
      "byteOffset": 144384,
      "componentType": 5126,
      "count": 7,
      "max": [
        0.60652780532836914,
        0.04940742626786232,
        2.4229552745819092
      ],
      "min": [
        0.59248220920562744,
        -0.10828399658203125,
        2.1802716255187988
      ],
      "type": "VEC3"
    },
    {
      "bufferView": 2,
      "byteOffset": 144468,
      "componentType": 5126,
      "count": 7,
      "max": [
        0.57735049724578857,
        0.42611414194107056,
        0.80244606733322144
      ],
      "min": [
        -0.57735049724578857,
        -0.81539535522460938,
        -0.72609096765518188
      ],
      "type": "VEC3"
    },
    {
      "bufferView": 3,
      "byteOffset": 96256,
      "componentType": 5126,
      "count": 7,
      "max": [
        0.81649643182754517,
        0.76964735984802246,
        0.84986239671707153,
        1
      ],
      "min": [
        -0.79171711206436157,
        -0.57657188177108765,
        0.029974482953548431,
        -1
      ],
      "type": "VEC4"
    },
    {
      "bufferView": 1,
      "byteOffset": 48128,
      "componentType": 5126,
      "count": 7,
      "max": [
        0.625,
        1
      ],
      "min": [
        0.125,
        0.5
      ],
      "type": "VEC2"
    },
    {
      "bufferView": 0,
      "byteOffset": 101136,
      "componentType": 5125,
      "count": 24,
      "max": [
        6
      ],
      "min": [
        0
      ],
      "type": "SCALAR"
    }
  ],
  "asset": {
    "extras": {
      "author": "Joshua_larkin (https://sketchfab.com/Joshua_larkin)",
      "license": "CC-BY-4.0 (http://creativecommons.org/licenses/by/4.0/)",
      "source": "https://sketchfab.com/3d-models/dope-raygun-cc39a093ccc04d1690aeee82459314f8",
      "title": "Dope Raygun"
    },
    "generator": "Sketchfab-6.20.0",
    "version": "2.0"
  },
  "bufferViews": [
    {
      "buffer": 0,
      "byteLength": 101232,
      "byteOffset": 0,
      "name": "floatBufferViews",
      "crosshair1": 34963
    },
    {
      "buffer": 0,
      "byteLength": 48184,
      "byteOffset": 101232,
      "byteStride": 8,
      "name": "floatBufferViews",
      "crosshair1": 34962
    },
    {
      "buffer": 0,
      "byteLength": 144552,
      "byteOffset": 149416,
      "byteStride": 12,
      "name": "floatBufferViews",
      "crosshair1": 34962
    },
    {
      "buffer": 0,
      "byteLength": 96368,
      "byteOffset": 293968,
      "byteStride": 16,
      "name": "floatBufferViews",
      "crosshair1": 34962
    }
  ],
  "buffers": [
    {
      "byteLength": 390336,
      "uri": "scene.bin"
    }
  ],
  "materials": [
    {
      "doubleSided": true,
      "emissiveFactor": [
        0,
        0,
        0
      ],
      "name": "Material.007",
      "pbrMetallicRoughness": {
        "baseColorFactor": [
          0.673848,
          0.673848,
          0.673848,
          1
        ],
        "metallicFactor": 0,
        "roughnessFactor": 0
      }
    },
    {
      "doubleSided": true,
      "emissiveFactor": [
        0,
        0,
        0
      ],
      "name": "Material.001",
      "pbrMetallicRoughness": {
        "baseColorFactor": [
          0.80000000000000004,
          0,
          0.00072810400000000003,
          1
        ],
        "metallicFactor": 0,
        "roughnessFactor": 0.5
      }
    },
    {
      "doubleSided": true,
      "emissiveFactor": [
        0,
        0,
        0
      ],
      "name": "Material.003",
      "pbrMetallicRoughness": {
        "baseColorFactor": [
          1,
          1,
          1,
          1
        ],
        "metallicFactor": 0,
        "roughnessFactor": 0.5
      }
    },
    {
      "doubleSided": true,
      "emissiveFactor": [
        0,
        0,
        0
      ],
      "name": "Material.006",
      "pbrMetallicRoughness": {
        "baseColorFactor": [
          0.80000000000000004,
          0.611703,
          0,
          1
        ],
        "metallicFactor": 0,
        "roughnessFactor": 0.5
      }
    },
    {
      "doubleSided": true,
      "emissiveFactor": [
        1,
        0.823133,
        0
      ],
      "name": "Material.005",
      "pbrMetallicRoughness": {
        "baseColorFactor": [
          1,
          1,
          1,
          1
        ],
        "metallicFactor": 1,
        "roughnessFactor": 1
      }
    },
    {
      "doubleSided": true,
      "emissiveFactor": [
        0,
        0,
        0
      ],
      "name": "Material.004",
      "pbrMetallicRoughness": {
        "baseColorFactor": [
          0,
          0,
          0,
          1
        ],
        "metallicFactor": 0,
        "roughnessFactor": 0.5
      }
    }
  ],
  "meshes": [
    {
      "primitives": [
        {
          "attributes": {
            "NORMAL": 1,
            "POSITION": 0,
            "TANGENT": 2,
            "TEXCOORD_0": 3
          },
          "indices": 4,
          "material": 0,
          "mode": 4
        }
      ]
    },
    {
      "primitives": [
        {
          "attributes": {
            "NORMAL": 6,
            "POSITION": 5,
            "TANGENT": 7,
            "TEXCOORD_0": 8
          },
          "indices": 9,
          "material": 1,
          "mode": 4
        }
      ]
    },
    {
      "primitives": [
        {
          "attributes": {
            "NORMAL": 11,
            "POSITION": 10,
            "TANGENT": 12,
            "TEXCOORD_0": 13
          },
          "indices": 14,
          "material": 2,
          "mode": 4
        }
      ]
    },
    {
      "primitives": [
        {
          "attributes": {
            "NORMAL": 16,
            "POSITION": 15,
            "TANGENT": 17,
            "TEXCOORD_0": 18
          },
          "indices": 19,
          "material": 3,
          "mode": 4
        }
      ]
    },
    {
      "primitives": [
        {
          "attributes": {
            "NORMAL": 21,
            "POSITION": 20,
            "TANGENT": 22,
            "TEXCOORD_0": 23
          },
          "indices": 24,
          "material": 4,
          "mode": 4
        }
      ]
    },
    {
      "primitives": [
        {
          "attributes": {
            "NORMAL": 26,
            "POSITION": 25,
            "TANGENT": 27,
            "TEXCOORD_0": 28
          },
          "indices": 29,
          "material": 5,
          "mode": 4
        }
      ]
    }
  ],
  "nodes": [
    {
      "children": [
        1
      ],
      "name": "RootNode (gltf orientation matrix)",
      "rotation": [
        -0.70710678118654746,
        -0,
        -0,
        0.70710678118654757
      ]
    },
    {
      "children": [
        2
      ],
      "name": "RootNode (model correction matrix)"
    },
    {
      "children": [
        3
      ],
      "name": "root"
    },
    {
      "children": [
        4
      ],
      "matrix": [
        1,
        0,
        0,
        0,
        0,
        2.2204460492503131e-16,
        1,
        0,
        0,
        -1,
        2.2204460492503131e-16,
        0,
        0,
        0,
        0,
        1
      ],
      "name": "GLTF_SceneRootNode"
    },
    {
      "children": [
        5,
        6,
        7,
        8,
        9,
        10
      ],
      "matrix": [
        1,
        0,
        0,
        0,
        0,
        0.91442853212356567,
        0,
        0,
        0,
        0,
        0.91442853212356567,
        0,
        0,
        0.27076601982116699,
        -1.2463300228118896,
        1
      ],
      "name": "gunbowl_3"
    },
    {
      "mesh": 0,
      "name": ""
    },
    {
      "mesh": 1,
      "name": ""
    },
    {
      "mesh": 2,
      "name": ""
    },
    {
      "mesh": 3,
      "name": ""
    },
    {
      "mesh": 4,
      "name": ""
    },
    {
      "mesh": 5,
      "name": ""
    }
  ],
  "scene": 0,
  "scenes": [
    {
      "name": "OSG_Scene",
      "nodes": [
        0
      ]
    }
  ]
}

