{
  "accessors": [
    {
      "bufferView": 2,
      "componentType": 5126,
      "count": 323,
      "max": [
        100,
        99.98565673828125,
        99.98565673828125
      ],
      "min": [
        -100,
        -99.98565673828125,
        -99.98565673828125
      ],
      "type": "VEC3"
    },
    {
      "bufferView": 2,
      "byteOffset": 3876,
      "componentType": 5126,
      "count": 323,
      "max": [
        1,
        0.99985784292221069,
        0.99985545873641968
      ],
      "min": [
        -1,
        -0.99985784292221069,
        -0.99985545873641968
      ],
      "type": "VEC3"
    },
    {
      "bufferView": 3,
      "componentType": 5126,
      "count": 323,
      "max": [
        1,
        0.97529762983322144,
        0.28519725799560547,
        1
      ],
      "min": [
        -1,
        -0.96140444278717041,
        -0.33696740865707397,
        1
      ],
      "type": "VEC4"
    },
    {
      "bufferView": 1,
      "componentType": 5126,
      "count": 323,
      "max": [
        1,
        1
      ],
      "min": [
        0,
        0
      ],
      "type": "VEC2"
    },
    {
      "bufferView": 0,
      "componentType": 5125,
      "count": 1584,
      "max": [
        322
      ],
      "min": [
        0
      ],
      "type": "SCALAR"
    },
    {
      "bufferView": 2,
      "byteOffset": 7752,
      "componentType": 5126,
      "count": 4060,
      "max": [
        260,
        250.033935546875,
        71.776542663574219
      ],
      "min": [
        -260,
        -250.033935546875,
        -71.776542663574219
      ],
      "type": "VEC3"
    },
    {
      "bufferView": 2,
      "byteOffset": 56472,
      "componentType": 5126,
      "count": 4060,
      "max": [
        1,
        0.96141040325164795,
        0.96140468120574951
      ],
      "min": [
        -1,
        -0.96141040325164795,
        -0.96140468120574951
      ],
      "type": "VEC3"
    },
    {
      "bufferView": 3,
      "byteOffset": 5168,
      "componentType": 5126,
      "count": 4060,
      "max": [
        1,
        0.96140450239181519,
        0.27513924241065979,
        1
      ],
      "min": [
        -1,
        -0.96140450239181519,
        -0.27513924241065979,
        1
      ],
      "type": "VEC4"
    },
    {
      "bufferView": 1,
      "byteOffset": 2584,
      "componentType": 5126,
      "count": 4060,
      "max": [
        1,
        1
      ],
      "min": [
        0,
        0
      ],
      "type": "VEC2"
    },
    {
      "bufferView": 0,
      "byteOffset": 6336,
      "componentType": 5125,
      "count": 13824,
      "max": [
        4059
      ],
      "min": [
        0
      ],
      "type": "SCALAR"
    }
  ],
  "asset": {
    "extras": {
      "author": "nuvoletta (https://sketchfab.com/nuvoletta)",
      "license": "CC-BY-4.0 (http://creativecommons.org/licenses/by/4.0/)",
      "source": "https://sketchfab.com/3d-models/plant-saturn-fantasy-46de0a658910469cb216c0b178c998c8",
      "title": "Plant Saturn Fantasy"
    },
    "generator": "Sketchfab-6.3.0",
    "version": "2.0"
  },
  "bufferViews": [
    {
      "buffer": 0,
      "byteLength": 61632,
      "byteOffset": 0,
      "name": "floatBufferViews",
      "crosshair1": 34963
    },
    {
      "buffer": 0,
      "byteLength": 35064,
      "byteOffset": 61632,
      "byteStride": 8,
      "name": "floatBufferViews",
      "crosshair1": 34962
    },
    {
      "buffer": 0,
      "byteLength": 105192,
      "byteOffset": 96696,
      "byteStride": 12,
      "name": "floatBufferViews",
      "crosshair1": 34962
    },
    {
      "buffer": 0,
      "byteLength": 70128,
      "byteOffset": 201888,
      "byteStride": 16,
      "name": "floatBufferViews",
      "crosshair1": 34962
    }
  ],
  "buffers": [
    {
      "byteLength": 272016,
      "uri": "scene.bin"
    }
  ],
  "images": [
    {
      "uri": "textures/colored_fresnel_2.4_baseColor.jpeg"
    },
    {
      "uri": "textures/colored_fresnel_2.9_baseColor.jpeg"
    }
  ],
  "materials": [
    {
      "alphaMode": "BLEND",
      "doubleSided": true,
      "emissiveFactor": [
        0,
        0,
        0
      ],
      "name": "colored_fresnel_2.4",
      "pbrMetallicRoughness": {
        "baseColorFactor": [
          1,
          1,
          1,
          0.06878810975609756
        ],
        "baseColorTexture": {
          "index": 0,
          "texCoord": 0
        },
        "metallicFactor": 0,
        "roughnessFactor": 1
      }
    },
    {
      "doubleSided": true,
      "emissiveFactor": [
        0,
        0,
        0
      ],
      "name": "colored_fresnel_2.9",
      "pbrMetallicRoughness": {
        "baseColorFactor": [
          1,
          1,
          1,
          1
        ],
        "baseColorTexture": {
          "index": 1,
          "texCoord": 0
        },
        "metallicFactor": 0,
        "roughnessFactor": 1
      }
    }
  ],
  "meshes": [
    {
      "primitives": [
        {
          "attributes": {
            "NORMAL": 1,
            "POSITION": 0,
            "TANGENT": 2,
            "TEXCOORD_0": 3
          },
          "indices": 4,
          "material": 1,
          "mode": 4
        }
      ]
    },
    {
      "primitives": [
        {
          "attributes": {
            "NORMAL": 6,
            "POSITION": 5,
            "TANGENT": 7,
            "TEXCOORD_0": 8
          },
          "indices": 9,
          "material": 0,
          "mode": 4
        }
      ]
    }
  ],
  "nodes": [
    {
      "children": [
        1
      ],
      "name": "RootNode (gltf orientation matrix)",
      "rotation": [
        -0.70710678118654746,
        -0,
        -0,
        0.70710678118654757
      ]
    },
    {
      "children": [
        2
      ],
      "name": "RootNode (model correction matrix)"
    },
    {
      "children": [
        3,
        4
      ],
      "name": "saturnselfmade_assets.obj.cleaner.materialmerger.gles"
    },
    {
      "mesh": 0,
      "name": ""
    },
    {
      "mesh": 1,
      "name": ""
    }
  ],
  "samplers": [
    {
      "magFilter": 9729,
      "minFilter": 9987,
      "wrapS": 33648,
      "wrapT": 10497
    },
    {
      "magFilter": 9729,
      "minFilter": 9987,
      "wrapS": 10497,
      "wrapT": 10497
    }
  ],
  "scene": 0,
  "scenes": [
    {
      "name": "OSG_Scene",
      "nodes": [
        0
      ]
    }
  ],
  "textures": [
    {
      "sampler": 0,
      "source": 0
    },
    {
      "sampler": 1,
      "source": 1
    }
  ]
}

