{
  "accessors": [
    {
      "bufferView": 2,
      "componentType": 5126,
      "count": 1774,
      "max": [
        3.5476739406585693,
        3.52811598777771,
        9.8712301254272461
      ],
      "min": [
        -3.2293651103973389,
        -3.2489240169525146,
        -1.4769810438156128
      ],
      "type": "VEC3"
    },
    {
      "bufferView": 2,
      "byteOffset": 21288,
      "componentType": 5126,
      "count": 1774,
      "max": [
        0.99968689680099487,
        0.99968725442886353,
        0.99914544820785522
      ],
      "min": [
        -0.9999922513961792,
        -0.99968725442886353,
        -1
      ],
      "type": "VEC3"
    },
    {
      "bufferView": 1,
      "componentType": 5126,
      "count": 1774,
      "max": [
        0.86684900522232056,
        0.99800801277160645
      ],
      "min": [
        0.0017300000181421638,
        0.0019920000340789557
      ],
      "type": "VEC2"
    },
    {
      "bufferView": 0,
      "componentType": 5125,
      "count": 8064,
      "max": [
        1773
      ],
      "min": [
        0
      ],
      "type": "SCALAR"
    },
    {
      "bufferView": 2,
      "byteOffset": 42576,
      "componentType": 5126,
      "count": 24,
      "max": [
        0.25248199701309204,
        0.02563600055873394,
        3.1551570892333984
      ],
      "min": [
        0.21514199674129486,
        -0.02563600055873394,
        3.103632926940918
      ],
      "type": "VEC3"
    },
    {
      "bufferView": 2,
      "byteOffset": 42864,
      "componentType": 5126,
      "count": 24,
      "max": [
        0.91200101375579834,
        0.7988896369934082,
        0.72858816385269165
      ],
      "min": [
        -0.91200101375579834,
        -0.7988896369934082,
        -0.72858816385269165
      ],
      "type": "VEC3"
    },
    {
      "bufferView": 1,
      "byteOffset": 14192,
      "componentType": 5126,
      "count": 24,
      "max": [
        0.875,
        1
      ],
      "min": [
        0.125,
        0
      ],
      "type": "VEC2"
    },
    {
      "bufferView": 0,
      "byteOffset": 32256,
      "componentType": 5125,
      "count": 36,
      "max": [
        23
      ],
      "min": [
        0
      ],
      "type": "SCALAR"
    },
    {
      "bufferView": 2,
      "byteOffset": 43152,
      "componentType": 5126,
      "count": 1034,
      "max": [
        2.9555270671844482,
        3.2135920524597168,
        9.1979818344116211
      ],
      "min": [
        -2.9873790740966797,
        -2.8524479866027832,
        4.1651191711425781
      ],
      "type": "VEC3"
    },
    {
      "bufferView": 2,
      "byteOffset": 55560,
      "componentType": 5126,
      "count": 1034,
      "max": [
        0.98897475004196167,
        0.99269062280654907,
        0.96373778581619263
      ],
      "min": [
        -0.99292701482772827,
        -0.99269098043441772,
        -0.99949097633361816
      ],
      "type": "VEC3"
    },
    {
      "bufferView": 1,
      "byteOffset": 14384,
      "componentType": 5126,
      "count": 1034,
      "max": [
        0.98491799831390381,
        0.99800801277160645
      ],
      "min": [
        0.0019660000689327717,
        0.0019920000340789557
      ],
      "type": "VEC2"
    },
    {
      "bufferView": 0,
      "byteOffset": 32400,
      "componentType": 5125,
      "count": 3696,
      "max": [
        1033
      ],
      "min": [
        0
      ],
      "type": "SCALAR"
    },
    {
      "bufferView": 2,
      "byteOffset": 67968,
      "componentType": 5126,
      "count": 1410,
      "max": [
        3.1491920948028564,
        2.4444200992584229,
        9.6995096206665039
      ],
      "min": [
        -2.1326498985290527,
        -2.7655720710754395,
        4.1935791969299316
      ],
      "type": "VEC3"
    },
    {
      "bufferView": 2,
      "byteOffset": 84888,
      "componentType": 5126,
      "count": 1410,
      "max": [
        0.99769359827041626,
        0.99413913488388062,
        0.95685809850692749
      ],
      "min": [
        -0.99769353866577148,
        -0.99269098043441772,
        -0.99984049797058105
      ],
      "type": "VEC3"
    },
    {
      "bufferView": 1,
      "byteOffset": 22656,
      "componentType": 5126,
      "count": 1410,
      "max": [
        0.98491799831390381,
        0.99800801277160645
      ],
      "min": [
        0.0019660000689327717,
        0.0019920000340789557
      ],
      "type": "VEC2"
    },
    {
      "bufferView": 0,
      "byteOffset": 47184,
      "componentType": 5125,
      "count": 5040,
      "max": [
        1409
      ],
      "min": [
        0
      ],
      "type": "SCALAR"
    },
    {
      "bufferView": 2,
      "byteOffset": 101808,
      "componentType": 5126,
      "count": 1500,
      "max": [
        3.1241381168365479,
        3.2840099334716797,
        4.4948868751525879
      ],
      "min": [
        -3.0788500308990479,
        -2.7706360816955566,
        1.159311056137085
      ],
      "type": "VEC3"
    },
    {
      "bufferView": 2,
      "byteOffset": 119808,
      "componentType": 5126,
      "count": 1500,
      "max": [
        0.9999956488609314,
        0.99998563528060913,
        1
      ],
      "min": [
        -0.9999956488609314,
        -0.99998563528060913,
        -1
      ],
      "type": "VEC3"
    },
    {
      "bufferView": 1,
      "byteOffset": 33936,
      "componentType": 5126,
      "count": 1500,
      "max": [
        0.91561299562454224,
        0.95824497938156128
      ],
      "min": [
        0.018660999834537506,
        0.075466997921466827
      ],
      "type": "VEC2"
    },
    {
      "bufferView": 0,
      "byteOffset": 67344,
      "componentType": 5125,
      "count": 5280,
      "max": [
        1499
      ],
      "min": [
        0
      ],
      "type": "SCALAR"
    },
    {
      "bufferView": 2,
      "byteOffset": 137808,
      "componentType": 5126,
      "count": 258,
      "max": [
        2.9323410987854004,
        2.3239688873291016,
        -0.6554419994354248
      ],
      "min": [
        -2.4354209899902344,
        -2.3239688873291016,
        -2.4479820728302002
      ],
      "type": "VEC3"
    },
    {
      "bufferView": 2,
      "byteOffset": 140904,
      "componentType": 5126,
      "count": 258,
      "max": [
        1,
        1,
        1
      ],
      "min": [
        -1,
        -1,
        -1
      ],
      "type": "VEC3"
    },
    {
      "bufferView": 1,
      "byteOffset": 45936,
      "componentType": 5126,
      "count": 258,
      "max": [
        0.94301599264144897,
        0.99800801277160645
      ],
      "min": [
        0.0018820000113919377,
        0.0019920000340789557
      ],
      "type": "VEC2"
    },
    {
      "bufferView": 0,
      "byteOffset": 88464,
      "componentType": 5125,
      "count": 1008,
      "max": [
        257
      ],
      "min": [
        0
      ],
      "type": "SCALAR"
    }
  ],
  "asset": {
    "extras": {
      "author": "anyaachan (https://sketchfab.com/anyaachan)",
      "license": "CC-BY-4.0 (http://creativecommons.org/licenses/by/4.0/)",
      "source": "https://sketchfab.com/3d-models/mushroom-9d6b66aba431493097f289a6e42f3614",
      "title": "mushroom"
    },
    "generator": "Sketchfab-8.42.0",
    "version": "2.0"
  },
  "bufferViews": [
    {
      "buffer": 0,
      "byteLength": 92496,
      "byteOffset": 0,
      "name": "floatBufferViews",
      "crosshair1": 34963
    },
    {
      "buffer": 0,
      "byteLength": 48000,
      "byteOffset": 92496,
      "byteStride": 8,
      "name": "floatBufferViews",
      "crosshair1": 34962
    },
    {
      "buffer": 0,
      "byteLength": 144000,
      "byteOffset": 140496,
      "byteStride": 12,
      "name": "floatBufferViews",
      "crosshair1": 34962
    }
  ],
  "buffers": [
    {
      "byteLength": 284496,
      "uri": "scene.bin"
    }
  ],
  "images": [
    {
      "uri": "textures/aiStandardSurface1SG_baseColor.png"
    },
    {
      "uri": "textures/aiStandardSurface2SG_baseColor.png"
    },
    {
      "uri": "textures/aiStandardSurface3SG_baseColor.png"
    },
    {
      "uri": "textures/aiStandardSurface3SG_emissive.png"
    },
    {
      "uri": "textures/aiStandardSurface5SG_baseColor.png"
    },
    {
      "uri": "textures/aiStandardSurface6SG_baseColor.jpeg"
    }
  ],
  "materials": [
    {
      "doubleSided": true,
      "emissiveFactor": [
        1,
        1,
        1
      ],
      "emissiveTexture": {
        "index": 0,
        "texCoord": 0
      },
      "name": "aiStandardSurface1SG",
      "pbrMetallicRoughness": {
        "baseColorFactor": [
          1,
          1,
          1,
          1
        ],
        "baseColorTexture": {
          "index": 0,
          "texCoord": 0
        },
        "metallicFactor": 0,
        "roughnessFactor": 0.59999999999999998
      }
    },
    {
      "doubleSided": true,
      "emissiveFactor": [
        0.23999999999999999,
        0.23999999999999999,
        0.23999999999999999
      ],
      "emissiveTexture": {
        "index": 1,
        "texCoord": 0
      },
      "name": "aiStandardSurface2SG",
      "pbrMetallicRoughness": {
        "baseColorFactor": [
          1,
          1,
          1,
          1
        ],
        "baseColorTexture": {
          "index": 1,
          "texCoord": 0
        },
        "metallicFactor": 0,
        "roughnessFactor": 0.59999999999999998
      }
    },
    {
      "doubleSided": true,
      "emissiveFactor": [
        1,
        1,
        1
      ],
      "emissiveTexture": {
        "index": 3,
        "texCoord": 0
      },
      "name": "aiStandardSurface3SG",
      "pbrMetallicRoughness": {
        "baseColorFactor": [
          1,
          1,
          1,
          1
        ],
        "baseColorTexture": {
          "index": 2,
          "texCoord": 0
        },
        "metallicFactor": 0,
        "roughnessFactor": 0.396921304318747
      }
    },
    {
      "doubleSided": true,
      "emissiveFactor": [
        0.92912646152162426,
        0.92912646152162426,
        0.92912646152162426
      ],
      "emissiveTexture": {
        "index": 4,
        "texCoord": 0
      },
      "name": "aiStandardSurface5SG",
      "pbrMetallicRoughness": {
        "baseColorFactor": [
          0.84077394524196047,
          0.84077394524196047,
          0.84077394524196047,
          1
        ],
        "baseColorTexture": {
          "index": 4,
          "texCoord": 0
        },
        "metallicFactor": 0,
        "roughnessFactor": 0
      }
    },
    {
      "doubleSided": true,
      "name": "aiStandardSurface6SG",
      "pbrMetallicRoughness": {
        "baseColorFactor": [
          1,
          1,
          1,
          1
        ],
        "baseColorTexture": {
          "index": 5,
          "texCoord": 0
        },
        "metallicFactor": 0,
        "roughnessFactor": 1
      }
    },
    {
      "doubleSided": true,
      "name": "initialShadingGroup",
      "pbrMetallicRoughness": {
        "baseColorFactor": [
          1,
          1,
          1,
          1
        ],
        "metallicFactor": 0,
        "roughnessFactor": 0.59999999999999998
      }
    }
  ],
  "meshes": [
    {
      "primitives": [
        {
          "attributes": {
            "NORMAL": 1,
            "POSITION": 0,
            "TEXCOORD_0": 2
          },
          "indices": 3,
          "material": 2,
          "mode": 4
        }
      ]
    },
    {
      "primitives": [
        {
          "attributes": {
            "NORMAL": 5,
            "POSITION": 4,
            "TEXCOORD_0": 6
          },
          "indices": 7,
          "material": 5,
          "mode": 4
        }
      ]
    },
    {
      "primitives": [
        {
          "attributes": {
            "NORMAL": 9,
            "POSITION": 8,
            "TEXCOORD_0": 10
          },
          "indices": 11,
          "material": 0,
          "mode": 4
        }
      ]
    },
    {
      "primitives": [
        {
          "attributes": {
            "NORMAL": 13,
            "POSITION": 12,
            "TEXCOORD_0": 14
          },
          "indices": 15,
          "material": 1,
          "mode": 4
        }
      ]
    },
    {
      "primitives": [
        {
          "attributes": {
            "NORMAL": 17,
            "POSITION": 16,
            "TEXCOORD_0": 18
          },
          "indices": 19,
          "material": 3,
          "mode": 4
        }
      ]
    },
    {
      "primitives": [
        {
          "attributes": {
            "NORMAL": 21,
            "POSITION": 20,
            "TEXCOORD_0": 22
          },
          "indices": 23,
          "material": 4,
          "mode": 4
        }
      ]
    }
  ],
  "nodes": [
    {
      "children": [
        1
      ],
      "name": "RootNode (gltf orientation matrix)",
      "rotation": [
        -0.70710678118654746,
        -0,
        -0,
        0.70710678118654757
      ]
    },
    {
      "children": [
        2
      ],
      "name": "RootNode (model correction matrix)"
    },
    {
      "children": [
        3,
        4,
        5,
        6,
        7,
        8
      ],
      "name": "sketchfab.obj.cleaner.materialmerger.gles"
    },
    {
      "mesh": 0,
      "name": ""
    },
    {
      "mesh": 1,
      "name": ""
    },
    {
      "mesh": 2,
      "name": ""
    },
    {
      "mesh": 3,
      "name": ""
    },
    {
      "mesh": 4,
      "name": ""
    },
    {
      "mesh": 5,
      "name": ""
    }
  ],
  "samplers": [
    {
      "magFilter": 9729,
      "minFilter": 9987,
      "wrapS": 10497,
      "wrapT": 10497
    }
  ],
  "scene": 0,
  "scenes": [
    {
      "name": "OSG_Scene",
      "nodes": [
        0
      ]
    }
  ],
  "textures": [
    {
      "sampler": 0,
      "source": 0
    },
    {
      "sampler": 0,
      "source": 1
    },
    {
      "sampler": 0,
      "source": 2
    },
    {
      "sampler": 0,
      "source": 3
    },
    {
      "sampler": 0,
      "source": 4
    },
    {
      "sampler": 0,
      "source": 5
    }
  ]
}

