{
  "accessors": [
    {
      "bufferView": 2,
      "componentType": 5126,
      "count": 8383,
      "max": [
        -0.4214012622833252,
        0.22420944273471832,
        2.30538010597229
      ],
      "min": [
        -0.86982011795043945,
        -0.22420944273471832,
        1.8569610118865967
      ],
      "type": "VEC3"
    },
    {
      "bufferView": 2,
      "byteOffset": 100596,
      "componentType": 5126,
      "count": 8383,
      "max": [
        0.99999994039535522,
        1,
        1
      ],
      "min": [
        -1,
        -1,
        -1
      ],
      "type": "VEC3"
    },
    {
      "bufferView": 3,
      "componentType": 5126,
      "count": 8383,
      "max": [
        0.83529412746429443,
        0.45098039507865906,
        0.57254904508590698,
        1
      ],
      "min": [
        0.83529412746429443,
        0.45098039507865906,
        0.57254904508590698,
        1
      ],
      "type": "VEC4"
    },
    {
      "bufferView": 1,
      "componentType": 5126,
      "count": 8383,
      "max": [
        1,
        1
      ],
      "min": [
        0,
        0
      ],
      "type": "VEC2"
    },
    {
      "bufferView": 0,
      "componentType": 5125,
      "count": 48384,
      "max": [
        8382
      ],
      "min": [
        0
      ],
      "type": "SCALAR"
    },
    {
      "bufferView": 2,
      "byteOffset": 201192,
      "componentType": 5126,
      "count": 8478,
      "max": [
        -0.22745263576507568,
        0.12194958329200745,
        -0.60719811916351318
      ],
      "min": [
        -0.70483338832855225,
        -0.33356136083602905,
        -2.0925362110137939
      ],
      "type": "VEC3"
    },
    {
      "bufferView": 2,
      "byteOffset": 302928,
      "componentType": 5126,
      "count": 8478,
      "max": [
        0.99981498718261719,
        0.99996656179428101,
        0.99999368190765381
      ],
      "min": [
        -0.99999010562896729,
        -0.99999797344207764,
        -0.99830251932144165
      ],
      "type": "VEC3"
    },
    {
      "bufferView": 3,
      "byteOffset": 134128,
      "componentType": 5126,
      "count": 8478,
      "max": [
        0.51764708757400513,
        0.3960784375667572,
        0.31372550129890442,
        1
      ],
      "min": [
        0.51764708757400513,
        0.3960784375667572,
        0.31372550129890442,
        1
      ],
      "type": "VEC4"
    },
    {
      "bufferView": 0,
      "byteOffset": 193536,
      "componentType": 5125,
      "count": 50856,
      "max": [
        8477
      ],
      "min": [
        0
      ],
      "type": "SCALAR"
    },
    {
      "bufferView": 2,
      "byteOffset": 404664,
      "componentType": 5126,
      "count": 6374,
      "max": [
        0.79349565505981445,
        0.11796125024557114,
        -0.64072394371032715
      ],
      "min": [
        0.31595778465270996,
        -0.32535389065742493,
        -2.1266794204711914
      ],
      "type": "VEC3"
    },
    {
      "bufferView": 2,
      "byteOffset": 481152,
      "componentType": 5126,
      "count": 6374,
      "max": [
        0.99988114833831787,
        0.93985980749130249,
        0.99996626377105713
      ],
      "min": [
        -0.99999070167541504,
        -0.91819500923156738,
        -0.99906027317047119
      ],
      "type": "VEC3"
    },
    {
      "bufferView": 3,
      "byteOffset": 269776,
      "componentType": 5126,
      "count": 6374,
      "max": [
        0.51764708757400513,
        0.3960784375667572,
        0.31372550129890442,
        1
      ],
      "min": [
        0.51764708757400513,
        0.3960784375667572,
        0.31372550129890442,
        1
      ],
      "type": "VEC4"
    },
    {
      "bufferView": 0,
      "byteOffset": 396960,
      "componentType": 5125,
      "count": 36714,
      "max": [
        6373
      ],
      "min": [
        0
      ],
      "type": "SCALAR"
    },
    {
      "bufferView": 2,
      "byteOffset": 557640,
      "componentType": 5126,
      "count": 4818,
      "max": [
        0.78494715690612793,
        0.1219380795955658,
        -0.73103278875350952
      ],
      "min": [
        0.325286865234375,
        -0.3335520327091217,
        -2.0376439094543457
      ],
      "type": "VEC3"
    },
    {
      "bufferView": 2,
      "byteOffset": 615456,
      "componentType": 5126,
      "count": 4818,
      "max": [
        0.86572080850601196,
        0.99995410442352295,
        0.99921160936355591
      ],
      "min": [
        -0.86702620983123779,
        -0.99999821186065674,
        -0.50012993812561035
      ],
      "type": "VEC3"
    },
    {
      "bufferView": 3,
      "byteOffset": 371760,
      "componentType": 5126,
      "count": 4818,
      "max": [
        0.51764708757400513,
        0.3960784375667572,
        0.31372550129890442,
        1
      ],
      "min": [
        0.51764708757400513,
        0.3960784375667572,
        0.31372550129890442,
        1
      ],
      "type": "VEC4"
    },
    {
      "bufferView": 0,
      "byteOffset": 543816,
      "componentType": 5125,
      "count": 27348,
      "max": [
        4817
      ],
      "min": [
        0
      ],
      "type": "SCALAR"
    },
    {
      "bufferView": 2,
      "byteOffset": 673272,
      "componentType": 5126,
      "count": 14286,
      "max": [
        1.065563440322876,
        1.0246813297271729,
        -1.0356082916259766
      ],
      "min": [
        -1.0654582977294922,
        -1.0195609331130981,
        -1.1099574565887451
      ],
      "type": "VEC3"
    },
    {
      "bufferView": 2,
      "byteOffset": 844704,
      "componentType": 5126,
      "count": 14286,
      "max": [
        0.93377768993377686,
        0.93435108661651611,
        -0.28831321001052856
      ],
      "min": [
        -0.9354555606842041,
        -0.92678391933441162,
        -1
      ],
      "type": "VEC3"
    },
    {
      "bufferView": 3,
      "byteOffset": 448848,
      "componentType": 5126,
      "count": 14286,
      "max": [
        0.80784314870834351,
        0.80000001192092896,
        0.75294119119644165,
        1
      ],
      "min": [
        0.80784314870834351,
        0.80000001192092896,
        0.75294119119644165,
        1
      ],
      "type": "VEC4"
    },
    {
      "bufferView": 0,
      "byteOffset": 653208,
      "componentType": 5125,
      "count": 84315,
      "max": [
        14285
      ],
      "min": [
        0
      ],
      "type": "SCALAR"
    },
    {
      "bufferView": 2,
      "byteOffset": 1016136,
      "componentType": 5126,
      "count": 54869,
      "max": [
        1.0727623701095581,
        1.0331579446792603,
        2.9104304313659668
      ],
      "min": [
        -1.0727851390838623,
        -1.031991720199585,
        -1.0977016687393188
      ],
      "type": "VEC3"
    },
    {
      "bufferView": 2,
      "byteOffset": 1674564,
      "componentType": 5126,
      "count": 54869,
      "max": [
        0.99998986721038818,
        0.99998205900192261,
        0.99927890300750732
      ],
      "min": [
        -0.99998986721038818,
        -0.99998289346694946,
        -0.99764829874038696
      ],
      "type": "VEC3"
    },
    {
      "bufferView": 3,
      "byteOffset": 677424,
      "componentType": 5126,
      "count": 54869,
      "max": [
        0.83529412746429443,
        0.80000001192092896,
        0.75294119119644165,
        1
      ],
      "min": [
        0.10980392247438431,
        0.078431375324726105,
        0.086274512112140656,
        1
      ],
      "type": "VEC4"
    },
    {
      "bufferView": 0,
      "byteOffset": 990468,
      "componentType": 5125,
      "count": 327201,
      "max": [
        54868
      ],
      "min": [
        0
      ],
      "type": "SCALAR"
    }
  ],
  "asset": {
    "extras": {
      "author": "Belyta (https://sketchfab.com/Belyta)",
      "license": "CC-BY-4.0 (http://creativecommons.org/licenses/by/4.0/)",
      "source": "https://sketchfab.com/3d-models/alien-assignment-201d2f31e749429599d146d61b71995a",
      "title": "Alien Assignment"
    },
    "generator": "Sketchfab-8.51.0",
    "version": "2.0"
  },
  "bufferViews": [
    {
      "buffer": 0,
      "byteLength": 2299272,
      "byteOffset": 0,
      "name": "floatBufferViews",
      "target": 34963
    },
    {
      "buffer": 0,
      "byteLength": 67064,
      "byteOffset": 2299272,
      "byteStride": 8,
      "name": "floatBufferViews",
      "target": 34962
    },
    {
      "buffer": 0,
      "byteLength": 2332992,
      "byteOffset": 2366336,
      "byteStride": 12,
      "name": "floatBufferViews",
      "target": 34962
    },
    {
      "buffer": 0,
      "byteLength": 1555328,
      "byteOffset": 4699328,
      "byteStride": 16,
      "name": "floatBufferViews",
      "target": 34962
    }
  ],
  "buffers": [
    {
      "byteLength": 6254656,
      "uri": "scene.bin"
    }
  ],
  "materials": [
    {
      "doubleSided": true,
      "name": "material_0",
      "pbrMetallicRoughness": {
        "baseColorFactor": [
          1,
          1,
          1,
          1
        ],
        "metallicFactor": 0,
        "roughnessFactor": 0.59999999999999998
      }
    },
    {
      "doubleSided": true,
      "name": "material_1",
      "pbrMetallicRoughness": {
        "baseColorFactor": [
          1,
          1,
          1,
          1
        ],
        "metallicFactor": 0,
        "roughnessFactor": 0.59999999999999998
      }
    },
    {
      "doubleSided": true,
      "name": "material_2",
      "pbrMetallicRoughness": {
        "baseColorFactor": [
          1,
          1,
          1,
          1
        ],
        "metallicFactor": 0,
        "roughnessFactor": 0.59999999999999998
      }
    },
    {
      "doubleSided": true,
      "emissiveFactor": [
        0,
        0,
        0
      ],
      "name": "defaultMat",
      "pbrMetallicRoughness": {
        "baseColorFactor": [
          0.80000000000000004,
          0.80000000000000004,
          0.80000000000000004,
          1
        ],
        "metallicFactor": 0,
        "roughnessFactor": 1
      }
    }
  ],
  "meshes": [
    {
      "primitives": [
        {
          "attributes": {
            "COLOR_0": 2,
            "NORMAL": 1,
            "POSITION": 0,
            "TEXCOORD_0": 3
          },
          "indices": 4,
          "material": 3,
          "mode": 4
        }
      ]
    },
    {
      "primitives": [
        {
          "attributes": {
            "COLOR_0": 7,
            "NORMAL": 6,
            "POSITION": 5
          },
          "indices": 8,
          "material": 2,
          "mode": 4
        }
      ]
    },
    {
      "primitives": [
        {
          "attributes": {
            "COLOR_0": 11,
            "NORMAL": 10,
            "POSITION": 9
          },
          "indices": 12,
          "material": 1,
          "mode": 4
        }
      ]
    },
    {
      "primitives": [
        {
          "attributes": {
            "COLOR_0": 15,
            "NORMAL": 14,
            "POSITION": 13
          },
          "indices": 16,
          "material": 1,
          "mode": 4
        }
      ]
    },
    {
      "primitives": [
        {
          "attributes": {
            "COLOR_0": 19,
            "NORMAL": 18,
            "POSITION": 17
          },
          "indices": 20,
          "material": 0,
          "mode": 4
        }
      ]
    },
    {
      "primitives": [
        {
          "attributes": {
            "COLOR_0": 23,
            "NORMAL": 22,
            "POSITION": 21
          },
          "indices": 24,
          "material": 0,
          "mode": 4
        }
      ]
    }
  ],
  "nodes": [
    {
      "children": [
        1
      ],
      "name": "RootNode (gltf orientation matrix)",
      "rotation": [
        -0.70710678118654746,
        -0,
        -0,
        0.70710678118654757
      ]
    },
    {
      "children": [
        2
      ],
      "name": "RootNode (model correction matrix)"
    },
    {
      "children": [
        3,
        5,
        7,
        10
      ],
      "name": "zbrush_concat.osgb.cleaner.materialmerger.gles"
    },
    {
      "children": [
        4
      ],
      "name": "/sketchfab-data/processing/models/6689c3196e784355b9adafd7099f3005/201d2f31e749429599d146d61b71995a/ec7c0d7400264cd880f1557eb83713a2/preprocess/SubTool-3-7275802.OBJ"
    },
    {
      "mesh": 0,
      "name": ""
    },
    {
      "children": [
        6
      ],
      "name": "/sketchfab-data/processing/models/6689c3196e784355b9adafd7099f3005/201d2f31e749429599d146d61b71995a/ec7c0d7400264cd880f1557eb83713a2/preprocess/SubTool-2-9011959.OBJ"
    },
    {
      "mesh": 1,
      "name": ""
    },
    {
      "children": [
        8,
        9
      ],
      "name": "/sketchfab-data/processing/models/6689c3196e784355b9adafd7099f3005/201d2f31e749429599d146d61b71995a/ec7c0d7400264cd880f1557eb83713a2/preprocess/SubTool-1-9011959.OBJ"
    },
    {
      "mesh": 2,
      "name": ""
    },
    {
      "mesh": 3,
      "name": ""
    },
    {
      "children": [
        11,
        12
      ],
      "name": "/sketchfab-data/processing/models/6689c3196e784355b9adafd7099f3005/201d2f31e749429599d146d61b71995a/ec7c0d7400264cd880f1557eb83713a2/preprocess/SubTool-0-10233600.OBJ"
    },
    {
      "mesh": 4,
      "name": ""
    },
    {
      "mesh": 5,
      "name": ""
    }
  ],
  "scene": 0,
  "scenes": [
    {
      "name": "OSG_Scene",
      "nodes": [
        0
      ]
    }
  ]
}

