{
  "accessors": [
    {
      "bufferView": 2,
      "componentType": 5126,
      "count": 9058,
      "max": [
        2.8434989452362061,
        2.8421878814697266,
        15.509516716003418
      ],
      "min": [
        -2.8335950374603271,
        -2.8275470733642578,
        0.15507400035858154
      ],
      "type": "VEC3"
    },
    {
      "bufferView": 2,
      "byteOffset": 108696,
      "componentType": 5126,
      "count": 9058,
      "max": [
        1,
        1,
        1
      ],
      "min": [
        -1,
        -1,
        -1
      ],
      "type": "VEC3"
    },
    {
      "bufferView": 3,
      "componentType": 5126,
      "count": 9058,
      "max": [
        1,
        1,
        1,
        1
      ],
      "min": [
        -1,
        -1,
        -1,
        -1
      ],
      "type": "VEC4"
    },
    {
      "bufferView": 1,
      "componentType": 5126,
      "count": 9058,
      "max": [
        0.56175398826599121,
        0.8032039999961853
      ],
      "min": [
        0.0099999997764825821,
        0.43228000402450562
      ],
      "type": "VEC2"
    },
    {
      "bufferView": 0,
      "componentType": 5125,
      "count": 41076,
      "max": [
        9057
      ],
      "min": [
        0
      ],
      "type": "SCALAR"
    },
    {
      "bufferView": 2,
      "byteOffset": 217392,
      "componentType": 5126,
      "count": 7058,
      "max": [
        1.1414879560470581,
        1.1401770114898682,
        15.377724647521973
      ],
      "min": [
        -1.1315829753875732,
        -1.1255350112915039,
        1.9468909502029419
      ],
      "type": "VEC3"
    },
    {
      "bufferView": 2,
      "byteOffset": 302088,
      "componentType": 5126,
      "count": 7058,
      "max": [
        1,
        1,
        1
      ],
      "min": [
        -1,
        -1,
        -1
      ],
      "type": "VEC3"
    },
    {
      "bufferView": 3,
      "byteOffset": 144928,
      "componentType": 5126,
      "count": 7058,
      "max": [
        1,
        1,
        1,
        1
      ],
      "min": [
        -1,
        -1,
        -1,
        -1
      ],
      "type": "VEC4"
    },
    {
      "bufferView": 1,
      "byteOffset": 72464,
      "componentType": 5126,
      "count": 7058,
      "max": [
        0.99000000953674316,
        0.99000000953674316
      ],
      "min": [
        0.0099999997764825821,
        0.4249739944934845
      ],
      "type": "VEC2"
    },
    {
      "bufferView": 0,
      "byteOffset": 164304,
      "componentType": 5125,
      "count": 31344,
      "max": [
        7057
      ],
      "min": [
        0
      ],
      "type": "SCALAR"
    },
    {
      "bufferView": 2,
      "byteOffset": 386784,
      "componentType": 5126,
      "count": 3468,
      "max": [
        7.6468849182128906,
        10.240800857543945,
        20.675596237182617
      ],
      "min": [
        -7.7817931175231934,
        -8.6895027160644531,
        6.4500417709350586
      ],
      "type": "VEC3"
    },
    {
      "bufferView": 2,
      "byteOffset": 428400,
      "componentType": 5126,
      "count": 3468,
      "max": [
        0.99941962957382202,
        0.99859112501144409,
        0.95062077045440674
      ],
      "min": [
        -0.99580037593841553,
        -0.96975302696228027,
        -0.99208426475524902
      ],
      "type": "VEC3"
    },
    {
      "bufferView": 1,
      "byteOffset": 128928,
      "componentType": 5126,
      "count": 3468,
      "max": [
        1,
        1
      ],
      "min": [
        0,
        0
      ],
      "type": "VEC2"
    },
    {
      "bufferView": 0,
      "byteOffset": 289680,
      "componentType": 5125,
      "count": 12240,
      "max": [
        3467
      ],
      "min": [
        0
      ],
      "type": "SCALAR"
    }
  ],
  "asset": {
    "extras": {
      "author": "Spark (https://sketchfab.com/sparkb)",
      "license": "CC-BY-4.0 (http://creativecommons.org/licenses/by/4.0/)",
      "source": "https://sketchfab.com/3d-models/sci-fi-lantern-13cee6fa640846ef9fd1f5e3f8a1d38e",
      "title": "sci-fi lantern"
    },
    "generator": "Sketchfab-8.42.0",
    "version": "2.0"
  },
  "bufferViews": [
    {
      "buffer": 0,
      "byteLength": 338640,
      "byteOffset": 0,
      "name": "floatBufferViews",
      "crosshair1": 34963
    },
    {
      "buffer": 0,
      "byteLength": 156672,
      "byteOffset": 338640,
      "byteStride": 8,
      "name": "floatBufferViews",
      "crosshair1": 34962
    },
    {
      "buffer": 0,
      "byteLength": 470016,
      "byteOffset": 495312,
      "byteStride": 12,
      "name": "floatBufferViews",
      "crosshair1": 34962
    },
    {
      "buffer": 0,
      "byteLength": 257856,
      "byteOffset": 965328,
      "byteStride": 16,
      "name": "floatBufferViews",
      "crosshair1": 34962
    }
  ],
  "buffers": [
    {
      "byteLength": 1223184,
      "uri": "scene.bin"
    }
  ],
  "images": [
    {
      "uri": "textures/aiStandardSurface1SG_baseColor.png"
    },
    {
      "uri": "textures/aiStandardSurface1SG_metallicRoughness.png"
    },
    {
      "uri": "textures/aiStandardSurface1SG_emissive.png"
    },
    {
      "uri": "textures/aiStandardSurface1SG_normal.png"
    }
  ],
  "materials": [
    {
      "doubleSided": true,
      "emissiveFactor": [
        1,
        1,
        1
      ],
      "emissiveTexture": {
        "index": 2,
        "texCoord": 0
      },
      "name": "aiStandardSurface1SG",
      "normalTexture": {
        "index": 3,
        "scale": 1,
        "texCoord": 0
      },
      "pbrMetallicRoughness": {
        "baseColorFactor": [
          1,
          1,
          1,
          1
        ],
        "baseColorTexture": {
          "index": 0,
          "texCoord": 0
        },
        "metallicFactor": 1,
        "metallicRoughnessTexture": {
          "index": 1,
          "texCoord": 0
        },
        "roughnessFactor": 1
      }
    },
    {
      "doubleSided": true,
      "emissiveFactor": [
        0.00040945478000000015,
        0.48958168384999967,
        0.46103496186999948
      ],
      "name": "aiStandardSurface2SG",
      "pbrMetallicRoughness": {
        "baseColorFactor": [
          0.0028913388000000014,
          0.45304591960000001,
          0.42810642609999983,
          1
        ],
        "metallicFactor": 0,
        "roughnessFactor": 0.19627558992880118
      }
    }
  ],
  "meshes": [
    {
      "primitives": [
        {
          "attributes": {
            "NORMAL": 1,
            "POSITION": 0,
            "TANGENT": 2,
            "TEXCOORD_0": 3
          },
          "indices": 4,
          "material": 0,
          "mode": 4
        }
      ]
    },
    {
      "primitives": [
        {
          "attributes": {
            "NORMAL": 6,
            "POSITION": 5,
            "TANGENT": 7,
            "TEXCOORD_0": 8
          },
          "indices": 9,
          "material": 0,
          "mode": 4
        }
      ]
    },
    {
      "primitives": [
        {
          "attributes": {
            "NORMAL": 11,
            "POSITION": 10,
            "TEXCOORD_0": 12
          },
          "indices": 13,
          "material": 1,
          "mode": 4
        }
      ]
    }
  ],
  "nodes": [
    {
      "children": [
        1
      ],
      "name": "RootNode (gltf orientation matrix)",
      "rotation": [
        -0.70710678118654746,
        -0,
        -0,
        0.70710678118654757
      ]
    },
    {
      "children": [
        2
      ],
      "name": "RootNode (model correction matrix)"
    },
    {
      "children": [
        3,
        4,
        5
      ],
      "name": "lighter.obj.cleaner.materialmerger.gles"
    },
    {
      "mesh": 0,
      "name": ""
    },
    {
      "mesh": 1,
      "name": ""
    },
    {
      "mesh": 2,
      "name": ""
    }
  ],
  "samplers": [
    {
      "magFilter": 9729,
      "minFilter": 9987,
      "wrapS": 10497,
      "wrapT": 10497
    }
  ],
  "scene": 0,
  "scenes": [
    {
      "name": "OSG_Scene",
      "nodes": [
        0
      ]
    }
  ],
  "textures": [
    {
      "sampler": 0,
      "source": 0
    },
    {
      "sampler": 0,
      "source": 1
    },
    {
      "sampler": 0,
      "source": 2
    },
    {
      "sampler": 0,
      "source": 3
    }
  ]
}

