{
  "accessors": [
    {
      "bufferView": 2,
      "componentType": 5126,
      "count": 4092,
      "max": [
        397.36297607421875,
        34.075275421142578,
        -8.1513376235961914
      ],
      "min": [
        386.34298706054688,
        28.251871109008789,
        -13.41580867767334
      ],
      "type": "VEC3"
    },
    {
      "bufferView": 2,
      "byteOffset": 49104,
      "componentType": 5126,
      "count": 4092,
      "max": [
        0.99880707263946533,
        0.99996352195739746,
        0.9982684850692749
      ],
      "min": [
        -0.99880760908126831,
        -0.94495499134063721,
        -0.53704595565795898
      ],
      "type": "VEC3"
    },
    {
      "bufferView": 1,
      "componentType": 5126,
      "count": 4092,
      "max": [
        2583.491943359375,
        36073.72265625
      ],
      "min": [
        -2583.10009765625,
        1623.706298828125
      ],
      "type": "VEC2"
    },
    {
      "bufferView": 1,
      "byteOffset": 32736,
      "componentType": 5126,
      "count": 4092,
      "max": [
        2583.491943359375,
        36073.72265625
      ],
      "min": [
        -2583.10009765625,
        1623.706298828125
      ],
      "type": "VEC2"
    },
    {
      "bufferView": 1,
      "byteOffset": 65472,
      "componentType": 5126,
      "count": 4092,
      "max": [
        2583.491943359375,
        36073.72265625
      ],
      "min": [
        -2583.10009765625,
        1623.706298828125
      ],
      "type": "VEC2"
    },
    {
      "bufferView": 1,
      "byteOffset": 98208,
      "componentType": 5126,
      "count": 4092,
      "max": [
        2583.491943359375,
        36073.72265625
      ],
      "min": [
        -2583.10009765625,
        1623.706298828125
      ],
      "type": "VEC2"
    },
    {
      "bufferView": 1,
      "byteOffset": 130944,
      "componentType": 5126,
      "count": 4092,
      "max": [
        2583.491943359375,
        36073.72265625
      ],
      "min": [
        -2583.10009765625,
        1623.706298828125
      ],
      "type": "VEC2"
    },
    {
      "bufferView": 1,
      "byteOffset": 163680,
      "componentType": 5126,
      "count": 4092,
      "max": [
        2583.491943359375,
        36073.72265625
      ],
      "min": [
        -2583.10009765625,
        1623.706298828125
      ],
      "type": "VEC2"
    },
    {
      "bufferView": 1,
      "byteOffset": 196416,
      "componentType": 5126,
      "count": 4092,
      "max": [
        2583.491943359375,
        36073.72265625
      ],
      "min": [
        -2583.10009765625,
        1623.706298828125
      ],
      "type": "VEC2"
    },
    {
      "bufferView": 1,
      "byteOffset": 229152,
      "componentType": 5126,
      "count": 4092,
      "max": [
        2583.491943359375,
        36073.72265625
      ],
      "min": [
        -2583.10009765625,
        1623.706298828125
      ],
      "type": "VEC2"
    },
    {
      "bufferView": 1,
      "byteOffset": 261888,
      "componentType": 5126,
      "count": 4092,
      "max": [
        2583.491943359375,
        36073.72265625
      ],
      "min": [
        -2583.10009765625,
        1623.706298828125
      ],
      "type": "VEC2"
    },
    {
      "bufferView": 1,
      "byteOffset": 294624,
      "componentType": 5126,
      "count": 4092,
      "max": [
        2583.491943359375,
        36073.72265625
      ],
      "min": [
        -2583.10009765625,
        1623.706298828125
      ],
      "type": "VEC2"
    },
    {
      "bufferView": 0,
      "componentType": 5125,
      "count": 4092,
      "max": [
        4091
      ],
      "min": [
        0
      ],
      "type": "SCALAR"
    },
    {
      "bufferView": 2,
      "byteOffset": 98208,
      "componentType": 5126,
      "count": 4380,
      "max": [
        398.54153442382812,
        39.660202026367188,
        -6.8979015350341797
      ],
      "min": [
        385.16439819335938,
        23.854879379272461,
        -20.579511642456055
      ],
      "type": "VEC3"
    },
    {
      "bufferView": 2,
      "byteOffset": 150768,
      "componentType": 5126,
      "count": 4380,
      "max": [
        0.99932390451431274,
        0.99915826320648193,
        0.99993431568145752
      ],
      "min": [
        -0.99932354688644409,
        -0.99998354911804199,
        -0.99830728769302368
      ],
      "type": "VEC3"
    },
    {
      "bufferView": 1,
      "byteOffset": 327360,
      "componentType": 5126,
      "count": 4380,
      "max": [
        3320.341796875,
        37644.43359375
      ],
      "min": [
        -3320.173828125,
        3062.58935546875
      ],
      "type": "VEC2"
    },
    {
      "bufferView": 1,
      "byteOffset": 362400,
      "componentType": 5126,
      "count": 4380,
      "max": [
        3320.341796875,
        37644.43359375
      ],
      "min": [
        -3320.173828125,
        3062.58935546875
      ],
      "type": "VEC2"
    },
    {
      "bufferView": 1,
      "byteOffset": 397440,
      "componentType": 5126,
      "count": 4380,
      "max": [
        3320.341796875,
        37644.43359375
      ],
      "min": [
        -3320.173828125,
        3062.58935546875
      ],
      "type": "VEC2"
    },
    {
      "bufferView": 1,
      "byteOffset": 432480,
      "componentType": 5126,
      "count": 4380,
      "max": [
        3320.341796875,
        37644.43359375
      ],
      "min": [
        -3320.173828125,
        3062.58935546875
      ],
      "type": "VEC2"
    },
    {
      "bufferView": 1,
      "byteOffset": 467520,
      "componentType": 5126,
      "count": 4380,
      "max": [
        3320.341796875,
        37644.43359375
      ],
      "min": [
        -3320.173828125,
        3062.58935546875
      ],
      "type": "VEC2"
    },
    {
      "bufferView": 1,
      "byteOffset": 502560,
      "componentType": 5126,
      "count": 4380,
      "max": [
        3320.341796875,
        37644.43359375
      ],
      "min": [
        -3320.173828125,
        3062.58935546875
      ],
      "type": "VEC2"
    },
    {
      "bufferView": 1,
      "byteOffset": 537600,
      "componentType": 5126,
      "count": 4380,
      "max": [
        3320.341796875,
        37644.43359375
      ],
      "min": [
        -3320.173828125,
        3062.58935546875
      ],
      "type": "VEC2"
    },
    {
      "bufferView": 1,
      "byteOffset": 572640,
      "componentType": 5126,
      "count": 4380,
      "max": [
        3320.341796875,
        37644.43359375
      ],
      "min": [
        -3320.173828125,
        3062.58935546875
      ],
      "type": "VEC2"
    },
    {
      "bufferView": 1,
      "byteOffset": 607680,
      "componentType": 5126,
      "count": 4380,
      "max": [
        3320.341796875,
        37644.43359375
      ],
      "min": [
        -3320.173828125,
        3062.58935546875
      ],
      "type": "VEC2"
    },
    {
      "bufferView": 1,
      "byteOffset": 642720,
      "componentType": 5126,
      "count": 4380,
      "max": [
        3320.341796875,
        37644.43359375
      ],
      "min": [
        -3320.173828125,
        3062.58935546875
      ],
      "type": "VEC2"
    },
    {
      "bufferView": 0,
      "byteOffset": 16368,
      "componentType": 5125,
      "count": 4392,
      "max": [
        4379
      ],
      "min": [
        0
      ],
      "type": "SCALAR"
    },
    {
      "bufferView": 2,
      "byteOffset": 203328,
      "componentType": 5126,
      "count": 4854,
      "max": [
        424.10025024414062,
        21.482192993164062,
        -8.231266975402832
      ],
      "min": [
        359.55364990234375,
        0.17815940082073212,
        -18.358049392700195
      ],
      "type": "VEC3"
    },
    {
      "bufferView": 2,
      "byteOffset": 261576,
      "componentType": 5126,
      "count": 4854,
      "max": [
        1,
        1,
        1
      ],
      "min": [
        -1,
        -1,
        -1
      ],
      "type": "VEC3"
    },
    {
      "bufferView": 1,
      "byteOffset": 677760,
      "componentType": 5126,
      "count": 4854,
      "max": [
        33.513771057128906,
        33.696914672851562
      ],
      "min": [
        -33.041110992431641,
        -33.917995452880859
      ],
      "type": "VEC2"
    },
    {
      "bufferView": 1,
      "byteOffset": 716592,
      "componentType": 5126,
      "count": 4854,
      "max": [
        33.513771057128906,
        33.696914672851562
      ],
      "min": [
        -33.041110992431641,
        -33.917995452880859
      ],
      "type": "VEC2"
    },
    {
      "bufferView": 1,
      "byteOffset": 755424,
      "componentType": 5126,
      "count": 4854,
      "max": [
        33.513771057128906,
        33.696914672851562
      ],
      "min": [
        -33.041110992431641,
        -33.917995452880859
      ],
      "type": "VEC2"
    },
    {
      "bufferView": 1,
      "byteOffset": 794256,
      "componentType": 5126,
      "count": 4854,
      "max": [
        33.513771057128906,
        33.696914672851562
      ],
      "min": [
        -33.041110992431641,
        -33.917995452880859
      ],
      "type": "VEC2"
    },
    {
      "bufferView": 1,
      "byteOffset": 833088,
      "componentType": 5126,
      "count": 4854,
      "max": [
        33.513771057128906,
        33.696914672851562
      ],
      "min": [
        -33.041110992431641,
        -33.917995452880859
      ],
      "type": "VEC2"
    },
    {
      "bufferView": 1,
      "byteOffset": 871920,
      "componentType": 5126,
      "count": 4854,
      "max": [
        33.513771057128906,
        33.696914672851562
      ],
      "min": [
        -33.041110992431641,
        -33.917995452880859
      ],
      "type": "VEC2"
    },
    {
      "bufferView": 1,
      "byteOffset": 910752,
      "componentType": 5126,
      "count": 4854,
      "max": [
        33.513771057128906,
        33.696914672851562
      ],
      "min": [
        -33.041110992431641,
        -33.917995452880859
      ],
      "type": "VEC2"
    },
    {
      "bufferView": 1,
      "byteOffset": 949584,
      "componentType": 5126,
      "count": 4854,
      "max": [
        33.513771057128906,
        33.696914672851562
      ],
      "min": [
        -33.041110992431641,
        -33.917995452880859
      ],
      "type": "VEC2"
    },
    {
      "bufferView": 1,
      "byteOffset": 988416,
      "componentType": 5126,
      "count": 4854,
      "max": [
        33.513771057128906,
        33.696914672851562
      ],
      "min": [
        -33.041110992431641,
        -33.917995452880859
      ],
      "type": "VEC2"
    },
    {
      "bufferView": 1,
      "byteOffset": 1027248,
      "componentType": 5126,
      "count": 4854,
      "max": [
        33.513771057128906,
        33.696914672851562
      ],
      "min": [
        -33.041110992431641,
        -33.917995452880859
      ],
      "type": "VEC2"
    },
    {
      "bufferView": 0,
      "byteOffset": 33936,
      "componentType": 5125,
      "count": 6168,
      "max": [
        4853
      ],
      "min": [
        0
      ],
      "type": "SCALAR"
    },
    {
      "bufferView": 2,
      "byteOffset": 319824,
      "componentType": 5126,
      "count": 12,
      "max": [
        395.97857666015625,
        20.352802276611328,
        -8.231266975402832
      ],
      "min": [
        387.67529296875,
        12.049978256225586,
        -8.231266975402832
      ],
      "type": "VEC3"
    },
    {
      "bufferView": 2,
      "byteOffset": 319968,
      "componentType": 5126,
      "count": 12,
      "max": [
        0,
        1.3877787807814457e-16,
        1
      ],
      "min": [
        0,
        1.3877787807814457e-16,
        1
      ],
      "type": "VEC3"
    },
    {
      "bufferView": 1,
      "byteOffset": 1066080,
      "componentType": 5126,
      "count": 12,
      "max": [
        0.70367366075515747,
        0.86992275714874268
      ],
      "min": [
        0.28646707534790039,
        0.091179504990577698
      ],
      "type": "VEC2"
    },
    {
      "bufferView": 1,
      "byteOffset": 1066176,
      "componentType": 5126,
      "count": 12,
      "max": [
        0.70367366075515747,
        0.86992275714874268
      ],
      "min": [
        0.28646707534790039,
        0.091179504990577698
      ],
      "type": "VEC2"
    },
    {
      "bufferView": 1,
      "byteOffset": 1066272,
      "componentType": 5126,
      "count": 12,
      "max": [
        0.70367366075515747,
        0.86992275714874268
      ],
      "min": [
        0.28646707534790039,
        0.091179504990577698
      ],
      "type": "VEC2"
    },
    {
      "bufferView": 1,
      "byteOffset": 1066368,
      "componentType": 5126,
      "count": 12,
      "max": [
        0.70367366075515747,
        0.86992275714874268
      ],
      "min": [
        0.28646707534790039,
        0.091179504990577698
      ],
      "type": "VEC2"
    },
    {
      "bufferView": 1,
      "byteOffset": 1066464,
      "componentType": 5126,
      "count": 12,
      "max": [
        0.70367366075515747,
        0.86992275714874268
      ],
      "min": [
        0.28646707534790039,
        0.091179504990577698
      ],
      "type": "VEC2"
    },
    {
      "bufferView": 1,
      "byteOffset": 1066560,
      "componentType": 5126,
      "count": 12,
      "max": [
        0.70367366075515747,
        0.86992275714874268
      ],
      "min": [
        0.28646707534790039,
        0.091179504990577698
      ],
      "type": "VEC2"
    },
    {
      "bufferView": 1,
      "byteOffset": 1066656,
      "componentType": 5126,
      "count": 12,
      "max": [
        0.70367366075515747,
        0.86992275714874268
      ],
      "min": [
        0.28646707534790039,
        0.091179504990577698
      ],
      "type": "VEC2"
    },
    {
      "bufferView": 1,
      "byteOffset": 1066752,
      "componentType": 5126,
      "count": 12,
      "max": [
        0.70367366075515747,
        0.86992275714874268
      ],
      "min": [
        0.28646707534790039,
        0.091179504990577698
      ],
      "type": "VEC2"
    },
    {
      "bufferView": 1,
      "byteOffset": 1066848,
      "componentType": 5126,
      "count": 12,
      "max": [
        0.70367366075515747,
        0.86992275714874268
      ],
      "min": [
        0.28646707534790039,
        0.091179504990577698
      ],
      "type": "VEC2"
    },
    {
      "bufferView": 1,
      "byteOffset": 1066944,
      "componentType": 5126,
      "count": 12,
      "max": [
        0.70367366075515747,
        0.86992275714874268
      ],
      "min": [
        0.28646707534790039,
        0.091179504990577698
      ],
      "type": "VEC2"
    },
    {
      "bufferView": 0,
      "byteOffset": 58608,
      "componentType": 5125,
      "count": 30,
      "max": [
        11
      ],
      "min": [
        0
      ],
      "type": "SCALAR"
    }
  ],
  "asset": {
    "extras": {
      "author": "taaaylor4really (https://sketchfab.com/taaaylor)",
      "license": "CC-BY-4.0 (http://creativecommons.org/licenses/by/4.0/)",
      "source": "https://sketchfab.com/3d-models/alien-avatar-fcb2d87a530749a7815b357207bb5cdc",
      "title": "Alien Avatar"
    },
    "generator": "Sketchfab-8.48.0",
    "version": "2.0"
  },
  "bufferViews": [
    {
      "buffer": 0,
      "byteLength": 58728,
      "byteOffset": 0,
      "name": "floatBufferViews",
      "target": 34963
    },
    {
      "buffer": 0,
      "byteLength": 1067040,
      "byteOffset": 58728,
      "byteStride": 8,
      "name": "floatBufferViews",
      "target": 34962
    },
    {
      "buffer": 0,
      "byteLength": 320112,
      "byteOffset": 1125768,
      "byteStride": 12,
      "name": "floatBufferViews",
      "target": 34962
    }
  ],
  "buffers": [
    {
      "byteLength": 1445880,
      "uri": "scene.bin"
    }
  ],
  "images": [
    {
      "uri": "textures/raised_hand_with_part_between_middle_and_ring_fingers_1f596_baseColor.png"
    }
  ],
  "materials": [
    {
      "doubleSided": true,
      "emissiveFactor": [
        0,
        0,
        0
      ],
      "name": "Color_M09",
      "pbrMetallicRoughness": {
        "baseColorFactor": [
          0,
          0,
          0,
          1
        ],
        "metallicFactor": 0,
        "roughnessFactor": 0.93021349661292274
      }
    },
    {
      "doubleSided": true,
      "emissiveFactor": [
        0,
        0,
        0
      ],
      "name": "Color_F06",
      "pbrMetallicRoughness": {
        "baseColorFactor": [
          0.40000000000000002,
          0.80000000000000004,
          0,
          1
        ],
        "metallicFactor": 0,
        "roughnessFactor": 0.93021349661292274
      }
    },
    {
      "doubleSided": true,
      "emissiveFactor": [
        0,
        0,
        0
      ],
      "name": "raised_hand_with_part_between_middle_and_ring_fingers_1f596",
      "pbrMetallicRoughness": {
        "baseColorFactor": [
          1,
          1,
          1,
          1
        ],
        "baseColorTexture": {
          "index": 0,
          "texCoord": 0
        },
        "metallicFactor": 0,
        "roughnessFactor": 0.93021349661292274
      }
    }
  ],
  "meshes": [
    {
      "name": "Mesh1_Color_M09_0",
      "primitives": [
        {
          "attributes": {
            "NORMAL": 1,
            "POSITION": 0,
            "TEXCOORD_0": 2,
            "TEXCOORD_1": 3,
            "TEXCOORD_2": 4,
            "TEXCOORD_3": 5,
            "TEXCOORD_4": 6,
            "TEXCOORD_5": 7,
            "TEXCOORD_6": 8,
            "TEXCOORD_7": 9,
            "TEXCOORD_8": 10,
            "TEXCOORD_9": 11
          },
          "indices": 12,
          "material": 0,
          "mode": 4
        }
      ]
    },
    {
      "name": "Mesh1_Color_F06_0",
      "primitives": [
        {
          "attributes": {
            "NORMAL": 14,
            "POSITION": 13,
            "TEXCOORD_0": 15,
            "TEXCOORD_1": 16,
            "TEXCOORD_2": 17,
            "TEXCOORD_3": 18,
            "TEXCOORD_4": 19,
            "TEXCOORD_5": 20,
            "TEXCOORD_6": 21,
            "TEXCOORD_7": 22,
            "TEXCOORD_8": 23,
            "TEXCOORD_9": 24
          },
          "indices": 25,
          "material": 1,
          "mode": 4
        }
      ]
    },
    {
      "name": "Mesh2_Color_F06_0",
      "primitives": [
        {
          "attributes": {
            "NORMAL": 27,
            "POSITION": 26,
            "TEXCOORD_0": 28,
            "TEXCOORD_1": 29,
            "TEXCOORD_2": 30,
            "TEXCOORD_3": 31,
            "TEXCOORD_4": 32,
            "TEXCOORD_5": 33,
            "TEXCOORD_6": 34,
            "TEXCOORD_7": 35,
            "TEXCOORD_8": 36,
            "TEXCOORD_9": 37
          },
          "indices": 38,
          "material": 1,
          "mode": 4
        }
      ]
    },
    {
      "name": "Mesh2_raised_hand_with_part_between_middle_and_ring_fingers_1f596_0",
      "primitives": [
        {
          "attributes": {
            "NORMAL": 40,
            "POSITION": 39,
            "TEXCOORD_0": 41,
            "TEXCOORD_1": 42,
            "TEXCOORD_2": 43,
            "TEXCOORD_3": 44,
            "TEXCOORD_4": 45,
            "TEXCOORD_5": 46,
            "TEXCOORD_6": 47,
            "TEXCOORD_7": 48,
            "TEXCOORD_8": 49,
            "TEXCOORD_9": 50
          },
          "indices": 51,
          "material": 2,
          "mode": 4
        }
      ]
    }
  ],
  "nodes": [
    {
      "children": [
        1
      ],
      "name": "RootNode (gltf orientation matrix)",
      "rotation": [
        -0.70710678118654746,
        -0,
        -0,
        0.70710678118654757
      ]
    },
    {
      "children": [
        2
      ],
      "name": "RootNode (model correction matrix)"
    },
    {
      "children": [
        3
      ],
      "matrix": [
        1,
        0,
        0,
        0,
        0,
        0,
        1,
        0,
        0,
        -1,
        0,
        0,
        0,
        0,
        0,
        1
      ],
      "name": "avatar-04.fbx"
    },
    {
      "children": [
        4
      ],
      "name": "RootNode"
    },
    {
      "children": [
        5
      ],
      "name": "Model"
    },
    {
      "children": [
        6,
        18
      ],
      "name": "skp2D3F1"
    },
    {
      "children": [
        7
      ],
      "name": "Alien1"
    },
    {
      "children": [
        8
      ],
      "name": "skp8F65_1"
    },
    {
      "children": [
        9
      ],
      "name": "Group1"
    },
    {
      "children": [
        10
      ],
      "name": "Group2"
    },
    {
      "children": [
        11
      ],
      "name": "Group3"
    },
    {
      "children": [
        12
      ],
      "name": "Group4"
    },
    {
      "children": [
        13
      ],
      "name": "Group5"
    },
    {
      "children": [
        14
      ],
      "name": "Group6"
    },
    {
      "children": [
        15
      ],
      "name": "Group7"
    },
    {
      "children": [
        16,
        17
      ],
      "name": "Mesh1"
    },
    {
      "mesh": 0,
      "name": "Mesh1_Color_M09_0"
    },
    {
      "mesh": 1,
      "name": "Mesh1_Color_F06_0"
    },
    {
      "children": [
        19,
        20
      ],
      "name": "Mesh2"
    },
    {
      "mesh": 2,
      "name": "Mesh2_Color_F06_0"
    },
    {
      "mesh": 3,
      "name": "Mesh2_raised_hand_with_part_between_middle_and_ring_fingers_1f596_0"
    }
  ],
  "samplers": [
    {
      "magFilter": 9729,
      "minFilter": 9987,
      "wrapS": 10497,
      "wrapT": 10497
    }
  ],
  "scene": 0,
  "scenes": [
    {
      "name": "OSG_Scene",
      "nodes": [
        0
      ]
    }
  ],
  "textures": [
    {
      "sampler": 0,
      "source": 0
    }
  ]
}

