{
  "accessors": [
    {
      "bufferView": 2,
      "componentType": 5126,
      "count": 2152,
      "max": [
        0.50866901874542236,
        -0.10119300335645676,
        1.0086690187454224
      ],
      "min": [
        -0.50866901874542236,
        -1.5960949659347534,
        -0.008669000118970871
      ],
      "type": "VEC3"
    },
    {
      "bufferView": 2,
      "byteOffset": 25824,
      "componentType": 5126,
      "count": 2152,
      "max": [
        1,
        1,
        1
      ],
      "min": [
        -1,
        -1,
        -1
      ],
      "type": "VEC3"
    },
    {
      "bufferView": 1,
      "componentType": 5126,
      "count": 2152,
      "max": [
        1,
        1
      ],
      "min": [
        0,
        0.49960198998451233
      ],
      "type": "VEC2"
    },
    {
      "bufferView": 0,
      "componentType": 5125,
      "count": 11664,
      "max": [
        2151
      ],
      "min": [
        0
      ],
      "type": "SCALAR"
    },
    {
      "bufferView": 2,
      "byteOffset": 51648,
      "componentType": 5126,
      "count": 2152,
      "max": [
        0.54553097486495972,
        1.3914710283279419,
        1.0455310344696045
      ],
      "min": [
        -0.54553097486495972,
        -0.21176199615001678,
        -0.045531000941991806
      ],
      "type": "VEC3"
    },
    {
      "bufferView": 2,
      "byteOffset": 77472,
      "componentType": 5126,
      "count": 2152,
      "max": [
        1,
        1,
        1
      ],
      "min": [
        -1,
        -1,
        -1
      ],
      "type": "VEC3"
    },
    {
      "bufferView": 1,
      "byteOffset": 17216,
      "componentType": 5126,
      "count": 2152,
      "max": [
        1,
        1
      ],
      "min": [
        0,
        0.49960198998451233
      ],
      "type": "VEC2"
    },
    {
      "bufferView": 0,
      "byteOffset": 46656,
      "componentType": 5125,
      "count": 11664,
      "max": [
        2151
      ],
      "min": [
        0
      ],
      "type": "SCALAR"
    }
  ],
  "asset": {
    "extras": {
      "author": "wolverene (https://sketchfab.com/wolverene)",
      "license": "CC-BY-4.0 (http://creativecommons.org/licenses/by/4.0/)",
      "source": "https://sketchfab.com/3d-models/capsule-47cb9ab327784349a94df382c648294b",
      "title": "Capsule"
    },
    "generator": "Sketchfab-8.7.0",
    "version": "2.0"
  },
  "bufferViews": [
    {
      "buffer": 0,
      "byteLength": 93312,
      "byteOffset": 0,
      "name": "floatBufferViews",
      "target": 34963
    },
    {
      "buffer": 0,
      "byteLength": 34432,
      "byteOffset": 93312,
      "byteStride": 8,
      "name": "floatBufferViews",
      "target": 34962
    },
    {
      "buffer": 0,
      "byteLength": 103296,
      "byteOffset": 127744,
      "byteStride": 12,
      "name": "floatBufferViews",
      "target": 34962
    }
  ],
  "buffers": [
    {
      "byteLength": 231040,
      "uri": "scene.bin"
    }
  ],
  "materials": [
    {
      "doubleSided": true,
      "emissiveFactor": [
        0,
        0,
        0
      ],
      "name": "CobCap",
      "pbrMetallicRoughness": {
        "baseColorFactor": [
          0.038367999999999999,
          0.237651,
          0.410939,
          1
        ],
        "metallicFactor": 0,
        "roughnessFactor": 0.7589714743166045
      }
    },
    {
      "doubleSided": true,
      "emissiveFactor": [
        0,
        0,
        0
      ],
      "name": "MagCap",
      "pbrMetallicRoughness": {
        "baseColorFactor": [
          0.26676100000000003,
          0.010425,
          0.133407,
          1
        ],
        "metallicFactor": 0,
        "roughnessFactor": 0.7390417804333782
      }
    }
  ],
  "meshes": [
    {
      "primitives": [
        {
          "attributes": {
            "NORMAL": 1,
            "POSITION": 0,
            "TEXCOORD_0": 2
          },
          "indices": 3,
          "material": 0,
          "mode": 4
        }
      ]
    },
    {
      "primitives": [
        {
          "attributes": {
            "NORMAL": 5,
            "POSITION": 4,
            "TEXCOORD_0": 6
          },
          "indices": 7,
          "material": 1,
          "mode": 4
        }
      ]
    }
  ],
  "nodes": [
    {
      "children": [
        1
      ],
      "name": "RootNode (gltf orientation matrix)",
      "rotation": [
        -0.70710678118654746,
        -0,
        -0,
        0.70710678118654757
      ]
    },
    {
      "children": [
        2
      ],
      "name": "RootNode (model correction matrix)"
    },
    {
      "children": [
        3,
        4
      ],
      "name": "Capsule.obj.cleaner.materialmerger.gles"
    },
    {
      "mesh": 0,
      "name": ""
    },
    {
      "mesh": 1,
      "name": ""
    }
  ],
  "scene": 0,
  "scenes": [
    {
      "name": "OSG_Scene",
      "nodes": [
        0
      ]
    }
  ]
}

