{
  "accessors": [
    {
      "bufferView": 2,
      "componentType": 5126,
      "count": 12864,
      "max": [
        12.061903953552246,
        14.137931823730469,
        28.416610717773438
      ],
      "min": [
        -12.061899185180664,
        -14.137931823730469,
        3.5762786865234375e-07
      ],
      "type": "VEC3"
    },
    {
      "bufferView": 2,
      "byteOffset": 154368,
      "componentType": 5126,
      "count": 12864,
      "max": [
        1,
        1,
        1
      ],
      "min": [
        -1,
        -1,
        -1
      ],
      "type": "VEC3"
    },
    {
      "bufferView": 3,
      "componentType": 5126,
      "count": 12864,
      "max": [
        1,
        1,
        1,
        1
      ],
      "min": [
        -1,
        -1,
        -1,
        -1
      ],
      "type": "VEC4"
    },
    {
      "bufferView": 1,
      "componentType": 5126,
      "count": 12864,
      "max": [
        0.98761212825775146,
        0.98798608779907227
      ],
      "min": [
        0.010458888486027718,
        0.012474807910621166
      ],
      "type": "VEC2"
    },
    {
      "bufferView": 1,
      "byteOffset": 102912,
      "componentType": 5126,
      "count": 12864,
      "max": [
        0.98761212825775146,
        0.98798608779907227
      ],
      "min": [
        0.010458888486027718,
        0.012474807910621166
      ],
      "type": "VEC2"
    },
    {
      "bufferView": 1,
      "byteOffset": 205824,
      "componentType": 5126,
      "count": 12864,
      "max": [
        0.98761212825775146,
        0.98798608779907227
      ],
      "min": [
        0.010458888486027718,
        0.012474807910621166
      ],
      "type": "VEC2"
    },
    {
      "bufferView": 1,
      "byteOffset": 308736,
      "componentType": 5126,
      "count": 12864,
      "max": [
        0.98761212825775146,
        0.98798608779907227
      ],
      "min": [
        0.010458888486027718,
        0.012474807910621166
      ],
      "type": "VEC2"
    },
    {
      "bufferView": 0,
      "componentType": 5125,
      "count": 36798,
      "max": [
        12863
      ],
      "min": [
        0
      ],
      "type": "SCALAR"
    }
  ],
  "asset": {
    "extras": {
      "author": "Misam Ali Rizvi (https://sketchfab.com/MisamAliRizvi)",
      "license": "CC-BY-4.0 (http://creativecommons.org/licenses/by/4.0/)",
      "source": "https://sketchfab.com/3d-models/subwoofer-7dc395a5ee0b476b8a3ec35317f54d88",
      "title": "Subwoofer"
    },
    "generator": "Sketchfab-8.34.0",
    "version": "2.0"
  },
  "bufferViews": [
    {
      "buffer": 0,
      "byteLength": 147192,
      "byteOffset": 0,
      "name": "floatBufferViews",
      "crosshair1": 34963
    },
    {
      "buffer": 0,
      "byteLength": 411648,
      "byteOffset": 147192,
      "byteStride": 8,
      "name": "floatBufferViews",
      "crosshair1": 34962
    },
    {
      "buffer": 0,
      "byteLength": 308736,
      "byteOffset": 558840,
      "byteStride": 12,
      "name": "floatBufferViews",
      "crosshair1": 34962
    },
    {
      "buffer": 0,
      "byteLength": 205824,
      "byteOffset": 867576,
      "byteStride": 16,
      "name": "floatBufferViews",
      "crosshair1": 34962
    }
  ],
  "buffers": [
    {
      "byteLength": 1073400,
      "uri": "scene.bin"
    }
  ],
  "images": [
    {
      "uri": "textures/Subwoofer_A_baseColor.jpeg"
    },
    {
      "uri": "textures/Subwoofer_A_metallicRoughness.png"
    },
    {
      "uri": "textures/Subwoofer_A_emissive.jpeg"
    },
    {
      "uri": "textures/Subwoofer_A_normal.png"
    }
  ],
  "materials": [
    {
      "doubleSided": true,
      "emissiveFactor": [
        1,
        1,
        1
      ],
      "emissiveTexture": {
        "index": 2,
        "texCoord": 1
      },
      "name": "Subwoofer_A",
      "normalTexture": {
        "index": 3,
        "scale": 0.48812390176872239,
        "texCoord": 2
      },
      "pbrMetallicRoughness": {
        "baseColorFactor": [
          1,
          1,
          1,
          1
        ],
        "baseColorTexture": {
          "index": 0,
          "texCoord": 0
        },
        "metallicFactor": 1,
        "metallicRoughnessTexture": {
          "index": 1,
          "texCoord": 0
        },
        "roughnessFactor": 1
      }
    }
  ],
  "meshes": [
    {
      "name": "Subwoofer_A_Subwoofer_A_0",
      "primitives": [
        {
          "attributes": {
            "NORMAL": 1,
            "POSITION": 0,
            "TANGENT": 2,
            "TEXCOORD_0": 3,
            "TEXCOORD_1": 4,
            "TEXCOORD_2": 5,
            "TEXCOORD_3": 6
          },
          "indices": 7,
          "material": 0,
          "mode": 4
        }
      ]
    }
  ],
  "nodes": [
    {
      "children": [
        1
      ],
      "name": "RootNode (gltf orientation matrix)",
      "rotation": [
        -0.70710678118654746,
        -0,
        -0,
        0.70710678118654757
      ]
    },
    {
      "children": [
        2
      ],
      "matrix": [
        1,
        2.832769343193999e-16,
        2.832769343193999e-16,
        0,
        2.832769343193999e-16,
        -1,
        3.1450057482662597e-32,
        0,
        2.832769343193999e-16,
        4.8795769672831353e-32,
        -1,
        0,
        4.0245584642661925e-15,
        -5.626678466796875e-05,
        -28.416633605957031,
        1
      ],
      "name": "RootNode (model correction matrix)"
    },
    {
      "children": [
        3
      ],
      "matrix": [
        1,
        0,
        0,
        0,
        0,
        -1,
        0,
        0,
        0,
        0,
        -1,
        0,
        0,
        0,
        0,
        1
      ],
      "name": "e16dca56c97349a6b1aa3b5a1321a144.fbx"
    },
    {
      "children": [
        4
      ],
      "name": "RootNode"
    },
    {
      "children": [
        5
      ],
      "matrix": [
        1,
        0,
        0,
        0,
        0,
        1,
        0,
        0,
        0,
        0,
        1,
        0,
        0,
        -1.7578979748132459e-18,
        -9.5367431640625e-07,
        1
      ],
      "name": "Subwoofer_A"
    },
    {
      "children": [
        6
      ],
      "matrix": [
        1,
        0,
        -0,
        0,
        0,
        1,
        0,
        0,
        0,
        0,
        1,
        0,
        -0.0104169845581055,
        1.7578979748132501e-18,
        5.7220458984375e-06,
        1
      ],
      "name": ""
    },
    {
      "mesh": 0,
      "name": "Subwoofer_A_Subwoofer_A_0"
    }
  ],
  "samplers": [
    {
      "magFilter": 9729,
      "minFilter": 9987,
      "wrapS": 10497,
      "wrapT": 10497
    }
  ],
  "scene": 0,
  "scenes": [
    {
      "name": "OSG_Scene",
      "nodes": [
        0
      ]
    }
  ],
  "textures": [
    {
      "sampler": 0,
      "source": 0
    },
    {
      "sampler": 0,
      "source": 1
    },
    {
      "sampler": 0,
      "source": 2
    },
    {
      "sampler": 0,
      "source": 3
    }
  ]
}

