{
  "accessors": [
    {
      "bufferView": 2,
      "componentType": 5126,
      "count": 8383,
      "max": [
        0.20369373261928558,
        0.48660695552825928,
        -0.35045763850212097
      ],
      "min": [
        -0.19714117050170898,
        0.11647702008485794,
        -0.79056411981582642
      ],
      "type": "VEC3"
    },
    {
      "bufferView": 2,
      "byteOffset": 100596,
      "componentType": 5126,
      "count": 8383,
      "max": [
        0.99881541728973389,
        0.99978047609329224,
        0.99960494041442871
      ],
      "min": [
        -0.99902290105819702,
        -1,
        -0.99712401628494263
      ],
      "type": "VEC3"
    },
    {
      "bufferView": 3,
      "componentType": 5126,
      "count": 8383,
      "max": [
        1,
        1,
        1,
        1
      ],
      "min": [
        1,
        1,
        1,
        1
      ],
      "type": "VEC4"
    },
    {
      "bufferView": 1,
      "componentType": 5126,
      "count": 8383,
      "max": [
        1,
        1
      ],
      "min": [
        0,
        0
      ],
      "type": "VEC2"
    },
    {
      "bufferView": 0,
      "componentType": 5125,
      "count": 48384,
      "max": [
        8382
      ],
      "min": [
        0
      ],
      "type": "SCALAR"
    },
    {
      "bufferView": 2,
      "byteOffset": 201192,
      "componentType": 5126,
      "count": 8066,
      "max": [
        0.71035295724868774,
        0.18955950438976288,
        1.9074076414108276
      ],
      "min": [
        0.19841265678405762,
        -0.16394934058189392,
        0.44819372892379761
      ],
      "type": "VEC3"
    },
    {
      "bufferView": 2,
      "byteOffset": 297984,
      "componentType": 5126,
      "count": 8066,
      "max": [
        0.99958705902099609,
        0.99994778633117676,
        0.99986779689788818
      ],
      "min": [
        -0.99987888336181641,
        -0.99999600648880005,
        -0.9996650218963623
      ],
      "type": "VEC3"
    },
    {
      "bufferView": 3,
      "byteOffset": 134128,
      "componentType": 5126,
      "count": 8066,
      "max": [
        0.28235295414924622,
        0.49803921580314636,
        0.82352942228317261,
        1
      ],
      "min": [
        0.28235295414924622,
        0.49803921580314636,
        0.82352942228317261,
        1
      ],
      "type": "VEC4"
    },
    {
      "bufferView": 0,
      "byteOffset": 193536,
      "componentType": 5125,
      "count": 48384,
      "max": [
        8065
      ],
      "min": [
        0
      ],
      "type": "SCALAR"
    },
    {
      "bufferView": 2,
      "byteOffset": 394776,
      "componentType": 5126,
      "count": 43368,
      "max": [
        0.97153502702713013,
        0.44759351015090942,
        0.92686659097671509
      ],
      "min": [
        -0.979683518409729,
        -0.74757063388824463,
        -1.1719003915786743
      ],
      "type": "VEC3"
    },
    {
      "bufferView": 2,
      "byteOffset": 915192,
      "componentType": 5126,
      "count": 43368,
      "max": [
        0.99996811151504517,
        0.99999535083770752,
        0.99999982118606567
      ],
      "min": [
        -0.9999738335609436,
        -0.99992525577545166,
        -0.99999815225601196
      ],
      "type": "VEC3"
    },
    {
      "bufferView": 3,
      "byteOffset": 263184,
      "componentType": 5126,
      "count": 43368,
      "max": [
        0.89803922176361084,
        0.85882353782653809,
        0.87058824300765991,
        1
      ],
      "min": [
        0.027450980618596077,
        0.035294119268655777,
        0.035294119268655777,
        1
      ],
      "type": "VEC4"
    },
    {
      "bufferView": 0,
      "byteOffset": 387072,
      "componentType": 5125,
      "count": 260196,
      "max": [
        43367
      ],
      "min": [
        0
      ],
      "type": "SCALAR"
    },
    {
      "bufferView": 2,
      "byteOffset": 1435608,
      "componentType": 5126,
      "count": 8066,
      "max": [
        -0.22970758378505707,
        0.16237634420394897,
        1.9074076414108276
      ],
      "min": [
        -0.70664095878601074,
        -0.19420014321804047,
        0.44819372892379761
      ],
      "type": "VEC3"
    },
    {
      "bufferView": 2,
      "byteOffset": 1532400,
      "componentType": 5126,
      "count": 8066,
      "max": [
        0.99987894296646118,
        0.99998420476913452,
        0.99986392259597778
      ],
      "min": [
        -0.99931776523590088,
        -0.99993896484375,
        -0.9996650218963623
      ],
      "type": "VEC3"
    },
    {
      "bufferView": 3,
      "byteOffset": 957072,
      "componentType": 5126,
      "count": 8066,
      "max": [
        0.28235295414924622,
        0.49803921580314636,
        0.82352942228317261,
        1
      ],
      "min": [
        0.28235295414924622,
        0.49803921580314636,
        0.82352942228317261,
        1
      ],
      "type": "VEC4"
    },
    {
      "bufferView": 0,
      "byteOffset": 1427856,
      "componentType": 5125,
      "count": 48384,
      "max": [
        8065
      ],
      "min": [
        0
      ],
      "type": "SCALAR"
    }
  ],
  "asset": {
    "extras": {
      "author": "Ruowen (https://sketchfab.com/cfxrw)",
      "license": "CC-BY-4.0 (http://creativecommons.org/licenses/by/4.0/)",
      "source": "https://sketchfab.com/3d-models/cute-alien-4bfa4dff2ae74378847892e297224acd",
      "title": "Cute Alien"
    },
    "generator": "Sketchfab-8.46.0",
    "version": "2.0"
  },
  "bufferViews": [
    {
      "buffer": 0,
      "byteLength": 1621392,
      "byteOffset": 0,
      "name": "floatBufferViews",
      "target": 34963
    },
    {
      "buffer": 0,
      "byteLength": 67064,
      "byteOffset": 1621392,
      "byteStride": 8,
      "name": "floatBufferViews",
      "target": 34962
    },
    {
      "buffer": 0,
      "byteLength": 1629192,
      "byteOffset": 1688456,
      "byteStride": 12,
      "name": "floatBufferViews",
      "target": 34962
    },
    {
      "buffer": 0,
      "byteLength": 1086128,
      "byteOffset": 3317648,
      "byteStride": 16,
      "name": "floatBufferViews",
      "target": 34962
    }
  ],
  "buffers": [
    {
      "byteLength": 4403776,
      "uri": "scene.bin"
    }
  ],
  "materials": [
    {
      "doubleSided": true,
      "name": "material_0",
      "pbrMetallicRoughness": {
        "baseColorFactor": [
          0.92421190278024612,
          0.92421190278024612,
          0.92421190278024612,
          1
        ],
        "metallicFactor": 0,
        "roughnessFactor": 0.54791154226022332
      }
    },
    {
      "doubleSided": true,
      "emissiveFactor": [
        0,
        0,
        0
      ],
      "name": "defaultMat",
      "pbrMetallicRoughness": {
        "baseColorFactor": [
          0.80000000000000004,
          0.80000000000000004,
          0.80000000000000004,
          1
        ],
        "metallicFactor": 0,
        "roughnessFactor": 0.70700160518882438
      }
    }
  ],
  "meshes": [
    {
      "primitives": [
        {
          "attributes": {
            "COLOR_0": 2,
            "NORMAL": 1,
            "POSITION": 0,
            "TEXCOORD_0": 3
          },
          "indices": 4,
          "material": 1,
          "mode": 4
        }
      ]
    },
    {
      "primitives": [
        {
          "attributes": {
            "COLOR_0": 7,
            "NORMAL": 6,
            "POSITION": 5
          },
          "indices": 8,
          "material": 0,
          "mode": 4
        }
      ]
    },
    {
      "primitives": [
        {
          "attributes": {
            "COLOR_0": 11,
            "NORMAL": 10,
            "POSITION": 9
          },
          "indices": 12,
          "material": 0,
          "mode": 4
        }
      ]
    },
    {
      "primitives": [
        {
          "attributes": {
            "COLOR_0": 15,
            "NORMAL": 14,
            "POSITION": 13
          },
          "indices": 16,
          "material": 0,
          "mode": 4
        }
      ]
    }
  ],
  "nodes": [
    {
      "children": [
        1
      ],
      "name": "RootNode (gltf orientation matrix)",
      "rotation": [
        -0.70710678118654746,
        -0,
        -0,
        0.70710678118654757
      ]
    },
    {
      "children": [
        2
      ],
      "name": "RootNode (model correction matrix)"
    },
    {
      "children": [
        3,
        5
      ],
      "name": "zbrush_concat.osgb.cleaner.materialmerger.gles"
    },
    {
      "children": [
        4
      ],
      "name": "/sketchfab-data/processing/models/0558ad6ac30e4a05859b16a77452e3e1/4bfa4dff2ae74378847892e297224acd/b42085df85bf404a9c55292f50fb67f6/preprocess/SubTool-1-4497048.OBJ"
    },
    {
      "mesh": 0,
      "name": ""
    },
    {
      "children": [
        6,
        7,
        8
      ],
      "name": "/sketchfab-data/processing/models/0558ad6ac30e4a05859b16a77452e3e1/4bfa4dff2ae74378847892e297224acd/b42085df85bf404a9c55292f50fb67f6/preprocess/SubTool-0-10233600.OBJ"
    },
    {
      "mesh": 1,
      "name": ""
    },
    {
      "mesh": 2,
      "name": ""
    },
    {
      "mesh": 3,
      "name": ""
    }
  ],
  "scene": 0,
  "scenes": [
    {
      "name": "OSG_Scene",
      "nodes": [
        0
      ]
    }
  ]
}

