{
  "accessors": [
    {
      "bufferView": 2,
      "componentType": 5126,
      "count": 7261,
      "max": [
        0.99011808633804321,
        1.7951217889785767,
        0.99826288223266602
      ],
      "min": [
        -1.0064074993133545,
        0.29415297508239746,
        -0.99826258420944214
      ],
      "type": "VEC3"
    },
    {
      "bufferView": 2,
      "byteOffset": 87132,
      "componentType": 5126,
      "count": 7261,
      "max": [
        0.99998843669891357,
        0.99999558925628662,
        0.99999499320983887
      ],
      "min": [
        -1,
        -0.99938845634460449,
        -0.99999499320983887
      ],
      "type": "VEC3"
    },
    {
      "bufferView": 1,
      "componentType": 5126,
      "count": 7261,
      "max": [
        0.52059352397918701,
        1.0000002384185791
      ],
      "min": [
        0.43897038698196411,
        0
      ],
      "type": "VEC2"
    },
    {
      "bufferView": 0,
      "componentType": 5125,
      "count": 36672,
      "max": [
        7260
      ],
      "min": [
        0
      ],
      "type": "SCALAR"
    },
    {
      "bufferView": 2,
      "byteOffset": 174264,
      "componentType": 5126,
      "count": 11926,
      "max": [
        0.98595291376113892,
        3.0170106887817383,
        0.99265378713607788
      ],
      "min": [
        -0.99935448169708252,
        -1.2022205591201782,
        -0.99265354871749878
      ],
      "type": "VEC3"
    },
    {
      "bufferView": 2,
      "byteOffset": 317376,
      "componentType": 5126,
      "count": 11926,
      "max": [
        1,
        1,
        1
      ],
      "min": [
        -1,
        -0.99999547004699707,
        -1
      ],
      "type": "VEC3"
    },
    {
      "bufferView": 1,
      "byteOffset": 58088,
      "componentType": 5126,
      "count": 11926,
      "max": [
        0.8750002384185791,
        1.0000002384185791
      ],
      "min": [
        0.33485820889472961,
        0
      ],
      "type": "VEC2"
    },
    {
      "bufferView": 0,
      "byteOffset": 146688,
      "componentType": 5125,
      "count": 53952,
      "max": [
        11925
      ],
      "min": [
        0
      ],
      "type": "SCALAR"
    },
    {
      "bufferView": 2,
      "byteOffset": 460488,
      "componentType": 5126,
      "count": 3116,
      "max": [
        0.60014110803604126,
        -1.2022204399108887,
        0.62761682271957397
      ],
      "min": [
        -0.62761682271957397,
        -1.4221373796463013,
        -0.62761682271957397
      ],
      "type": "VEC3"
    },
    {
      "bufferView": 2,
      "byteOffset": 497880,
      "componentType": 5126,
      "count": 3116,
      "max": [
        0.93680989742279053,
        0.9999924898147583,
        0.930308997631073
      ],
      "min": [
        -0.99652588367462158,
        -1,
        -0.93248951435089111
      ],
      "type": "VEC3"
    },
    {
      "bufferView": 1,
      "byteOffset": 153496,
      "componentType": 5126,
      "count": 3116,
      "max": [
        0.37500014901161194,
        1.0000002384185791
      ],
      "min": [
        0.12500001490116119,
        0
      ],
      "type": "VEC2"
    },
    {
      "bufferView": 0,
      "byteOffset": 362496,
      "componentType": 5125,
      "count": 9600,
      "max": [
        3115
      ],
      "min": [
        0
      ],
      "type": "SCALAR"
    },
    {
      "bufferView": 2,
      "byteOffset": 535272,
      "componentType": 5126,
      "count": 37210,
      "max": [
        0.99358850717544556,
        0.96143919229507446,
        0.99358844757080078
      ],
      "min": [
        -0.99358844757080078,
        -0.99999845027923584,
        -0.99358844757080078
      ],
      "type": "VEC3"
    },
    {
      "bufferView": 2,
      "byteOffset": 981792,
      "componentType": 5126,
      "count": 37210,
      "max": [
        1,
        1,
        1
      ],
      "min": [
        -1,
        -1,
        -1
      ],
      "type": "VEC3"
    },
    {
      "bufferView": 1,
      "byteOffset": 178424,
      "componentType": 5126,
      "count": 37210,
      "max": [
        1.0000001192092896,
        1.0000001192092896
      ],
      "min": [
        0,
        0.010000006295740604
      ],
      "type": "VEC2"
    },
    {
      "bufferView": 0,
      "byteOffset": 400896,
      "componentType": 5125,
      "count": 203520,
      "max": [
        37209
      ],
      "min": [
        0
      ],
      "type": "SCALAR"
    },
    {
      "bufferView": 2,
      "byteOffset": 1428312,
      "componentType": 5126,
      "count": 541,
      "max": [
        0.80462193489074707,
        -0.82241642475128174,
        0.81985783576965332
      ],
      "min": [
        -0.80462169647216797,
        -0.92651653289794922,
        -0.78930211067199707
      ],
      "type": "VEC3"
    },
    {
      "bufferView": 2,
      "byteOffset": 1434804,
      "componentType": 5126,
      "count": 541,
      "max": [
        0.38591206073760986,
        -0.91553503274917603,
        0.40223845839500427
      ],
      "min": [
        -0.38591206073760986,
        -0.99999988079071045,
        -0.37040650844573975
      ],
      "type": "VEC3"
    },
    {
      "bufferView": 1,
      "byteOffset": 476104,
      "componentType": 5126,
      "count": 541,
      "max": [
        0.92937445640563965,
        0.42937412858009338
      ],
      "min": [
        0.57062619924545288,
        0.070625871419906616
      ],
      "type": "VEC2"
    },
    {
      "bufferView": 0,
      "byteOffset": 1214976,
      "componentType": 5125,
      "count": 1536,
      "max": [
        540
      ],
      "min": [
        0
      ],
      "type": "SCALAR"
    },
    {
      "bufferView": 2,
      "byteOffset": 1441296,
      "componentType": 5126,
      "count": 2062,
      "max": [
        0.17520247399806976,
        0.125,
        0.16277875006198883
      ],
      "min": [
        -2.0392880439758301,
        -0.125,
        -1.2579009532928467
      ],
      "type": "VEC3"
    },
    {
      "bufferView": 2,
      "byteOffset": 1466040,
      "componentType": 5126,
      "count": 2062,
      "max": [
        0.99999868869781494,
        1,
        0.99999940395355225
      ],
      "min": [
        -0.99891215562820435,
        -1,
        -0.99990653991699219
      ],
      "type": "VEC3"
    },
    {
      "bufferView": 1,
      "byteOffset": 480432,
      "componentType": 5126,
      "count": 2062,
      "max": [
        1,
        1
      ],
      "min": [
        0,
        0
      ],
      "type": "VEC2"
    },
    {
      "bufferView": 0,
      "byteOffset": 1221120,
      "componentType": 5125,
      "count": 9204,
      "max": [
        2061
      ],
      "min": [
        0
      ],
      "type": "SCALAR"
    },
    {
      "bufferView": 2,
      "byteOffset": 1490784,
      "componentType": 5126,
      "count": 2062,
      "max": [
        0.17520247399806976,
        0.125,
        0.16277875006198883
      ],
      "min": [
        -2.0392880439758301,
        -0.125,
        -1.2579009532928467
      ],
      "type": "VEC3"
    },
    {
      "bufferView": 2,
      "byteOffset": 1515528,
      "componentType": 5126,
      "count": 2062,
      "max": [
        0.99999868869781494,
        1,
        0.99999940395355225
      ],
      "min": [
        -0.99891215562820435,
        -1,
        -0.99990653991699219
      ],
      "type": "VEC3"
    },
    {
      "bufferView": 1,
      "byteOffset": 496928,
      "componentType": 5126,
      "count": 2062,
      "max": [
        1,
        1
      ],
      "min": [
        0,
        0
      ],
      "type": "VEC2"
    },
    {
      "bufferView": 0,
      "byteOffset": 1257936,
      "componentType": 5125,
      "count": 9204,
      "max": [
        2061
      ],
      "min": [
        0
      ],
      "type": "SCALAR"
    },
    {
      "bufferView": 2,
      "byteOffset": 1540272,
      "componentType": 5126,
      "count": 2062,
      "max": [
        0.17520247399806976,
        0.125,
        0.16277875006198883
      ],
      "min": [
        -2.0392880439758301,
        -0.125,
        -1.2579009532928467
      ],
      "type": "VEC3"
    },
    {
      "bufferView": 2,
      "byteOffset": 1565016,
      "componentType": 5126,
      "count": 2062,
      "max": [
        0.99999868869781494,
        1,
        0.99999940395355225
      ],
      "min": [
        -0.99891215562820435,
        -1,
        -0.99990653991699219
      ],
      "type": "VEC3"
    },
    {
      "bufferView": 1,
      "byteOffset": 513424,
      "componentType": 5126,
      "count": 2062,
      "max": [
        1,
        1
      ],
      "min": [
        0,
        0
      ],
      "type": "VEC2"
    },
    {
      "bufferView": 0,
      "byteOffset": 1294752,
      "componentType": 5125,
      "count": 9204,
      "max": [
        2061
      ],
      "min": [
        0
      ],
      "type": "SCALAR"
    },
    {
      "bufferView": 2,
      "byteOffset": 1589760,
      "componentType": 5126,
      "count": 2062,
      "max": [
        0.17520247399806976,
        0.125,
        0.16277875006198883
      ],
      "min": [
        -2.0392880439758301,
        -0.125,
        -1.2579009532928467
      ],
      "type": "VEC3"
    },
    {
      "bufferView": 2,
      "byteOffset": 1614504,
      "componentType": 5126,
      "count": 2062,
      "max": [
        0.99999868869781494,
        1,
        0.99999940395355225
      ],
      "min": [
        -0.99891215562820435,
        -1,
        -0.99990653991699219
      ],
      "type": "VEC3"
    },
    {
      "bufferView": 1,
      "byteOffset": 529920,
      "componentType": 5126,
      "count": 2062,
      "max": [
        1,
        1
      ],
      "min": [
        0,
        0
      ],
      "type": "VEC2"
    },
    {
      "bufferView": 0,
      "byteOffset": 1331568,
      "componentType": 5125,
      "count": 9204,
      "max": [
        2061
      ],
      "min": [
        0
      ],
      "type": "SCALAR"
    }
  ],
  "asset": {
    "extras": {
      "author": "pawanesh (https://sketchfab.com/pawanesh02)",
      "license": "CC-BY-NC-4.0 (http://creativecommons.org/licenses/by-nc/4.0/)",
      "source": "https://sketchfab.com/3d-models/rocket-model-2cb1d16f70bc4cd28d99da9469c8632d",
      "title": "ROCKET Model"
    },
    "generator": "Sketchfab-8.33.0",
    "version": "2.0"
  },
  "bufferViews": [
    {
      "buffer": 0,
      "byteLength": 1368384,
      "byteOffset": 0,
      "name": "floatBufferViews",
      "target": 34963
    },
    {
      "buffer": 0,
      "byteLength": 546416,
      "byteOffset": 1368384,
      "byteStride": 8,
      "name": "floatBufferViews",
      "target": 34962
    },
    {
      "buffer": 0,
      "byteLength": 1639248,
      "byteOffset": 1914800,
      "byteStride": 12,
      "name": "floatBufferViews",
      "target": 34962
    }
  ],
  "buffers": [
    {
      "byteLength": 3554048,
      "uri": "scene.bin"
    }
  ],
  "materials": [
    {
      "doubleSided": true,
      "emissiveFactor": [
        0,
        0,
        0
      ],
      "name": "Material.002",
      "pbrMetallicRoughness": {
        "baseColorFactor": [
          1,
          1,
          1,
          1
        ],
        "metallicFactor": 0,
        "roughnessFactor": 0
      }
    },
    {
      "doubleSided": true,
      "emissiveFactor": [
        0,
        0,
        0
      ],
      "name": "Material.003",
      "pbrMetallicRoughness": {
        "baseColorFactor": [
          0.98488600000000004,
          0.156749,
          0.12046,
          1
        ],
        "metallicFactor": 0,
        "roughnessFactor": 1
      }
    },
    {
      "doubleSided": true,
      "emissiveFactor": [
        0,
        0,
        0
      ],
      "name": "Material.004",
      "pbrMetallicRoughness": {
        "baseColorFactor": [
          0.0030445899999999998,
          0.00040171299999999999,
          0.00364205,
          1
        ],
        "metallicFactor": 0,
        "roughnessFactor": 0.5
      }
    },
    {
      "doubleSided": true,
      "emissiveFactor": [
        0,
        0,
        0
      ],
      "name": "Material.001",
      "pbrMetallicRoughness": {
        "baseColorFactor": [
          0.090119099999999994,
          0.059392,
          0.195988,
          1
        ],
        "metallicFactor": 0,
        "roughnessFactor": 1
      }
    },
    {
      "doubleSided": true,
      "emissiveFactor": [
        0,
        0,
        0
      ],
      "name": "Material",
      "pbrMetallicRoughness": {
        "baseColorFactor": [
          0.075178499999999995,
          0.61454500000000001,
          1,
          1
        ],
        "metallicFactor": 0,
        "roughnessFactor": 1
      }
    }
  ],
  "meshes": [
    {
      "primitives": [
        {
          "attributes": {
            "NORMAL": 1,
            "POSITION": 0,
            "TEXCOORD_0": 2
          },
          "indices": 3,
          "material": 0,
          "mode": 4
        }
      ]
    },
    {
      "primitives": [
        {
          "attributes": {
            "NORMAL": 5,
            "POSITION": 4,
            "TEXCOORD_0": 6
          },
          "indices": 7,
          "material": 1,
          "mode": 4
        }
      ]
    },
    {
      "primitives": [
        {
          "attributes": {
            "NORMAL": 9,
            "POSITION": 8,
            "TEXCOORD_0": 10
          },
          "indices": 11,
          "material": 2,
          "mode": 4
        }
      ]
    },
    {
      "primitives": [
        {
          "attributes": {
            "NORMAL": 13,
            "POSITION": 12,
            "TEXCOORD_0": 14
          },
          "indices": 15,
          "material": 3,
          "mode": 4
        }
      ]
    },
    {
      "primitives": [
        {
          "attributes": {
            "NORMAL": 17,
            "POSITION": 16,
            "TEXCOORD_0": 18
          },
          "indices": 19,
          "material": 4,
          "mode": 4
        }
      ]
    },
    {
      "primitives": [
        {
          "attributes": {
            "NORMAL": 21,
            "POSITION": 20,
            "TEXCOORD_0": 22
          },
          "indices": 23,
          "material": 3,
          "mode": 4
        }
      ]
    },
    {
      "primitives": [
        {
          "attributes": {
            "NORMAL": 25,
            "POSITION": 24,
            "TEXCOORD_0": 26
          },
          "indices": 27,
          "material": 3,
          "mode": 4
        }
      ]
    },
    {
      "primitives": [
        {
          "attributes": {
            "NORMAL": 29,
            "POSITION": 28,
            "TEXCOORD_0": 30
          },
          "indices": 31,
          "material": 3,
          "mode": 4
        }
      ]
    },
    {
      "primitives": [
        {
          "attributes": {
            "NORMAL": 33,
            "POSITION": 32,
            "TEXCOORD_0": 34
          },
          "indices": 35,
          "material": 3,
          "mode": 4
        }
      ]
    }
  ],
  "nodes": [
    {
      "children": [
        1
      ],
      "name": "RootNode (gltf orientation matrix)",
      "rotation": [
        -0.70710678118654746,
        -0,
        -0,
        0.70710678118654757
      ]
    },
    {
      "children": [
        2
      ],
      "name": "RootNode (model correction matrix)"
    },
    {
      "children": [
        3
      ],
      "name": "root"
    },
    {
      "children": [
        4,
        8,
        11,
        13,
        15,
        17
      ],
      "matrix": [
        1,
        0,
        0,
        0,
        0,
        2.2204460492503131e-16,
        1,
        0,
        0,
        -1,
        2.2204460492503131e-16,
        0,
        0,
        0,
        0,
        1
      ],
      "name": "GLTF_SceneRootNode"
    },
    {
      "children": [
        5,
        6,
        7
      ],
      "matrix": [
        0.83443442858472638,
        0,
        0.74375804579257498,
        0,
        -0,
        1.0877153873443604,
        0,
        0,
        -0.62697769145391424,
        0,
        0.70341662139090866,
        0,
        -0.048176847398281097,
        0.34609696269035339,
        0.08948671817779541,
        1
      ],
      "name": "Cube_0"
    },
    {
      "mesh": 0,
      "name": ""
    },
    {
      "mesh": 1,
      "name": ""
    },
    {
      "mesh": 2,
      "name": ""
    },
    {
      "children": [
        9,
        10
      ],
      "matrix": [
        0.34812606239593191,
        -1.1895201125594342e-10,
        -0.39056845078402141,
        0,
        0.3880352617813379,
        -0.060065605588108972,
        0.34586815061659143,
        0,
        -0.043828462567440017,
        -0.50808728477207665,
        -0.039065700272011235,
        0,
        -0.62248313426971436,
        1.69081711769104,
        -0.39304375648498535,
        1
      ],
      "name": "Cylinder_1"
    },
    {
      "mesh": 3,
      "name": ""
    },
    {
      "mesh": 4,
      "name": ""
    },
    {
      "children": [
        12
      ],
      "matrix": [
        2.8865095202945668e-08,
        0.99999999999999911,
        -3.0710961718138918e-08,
        0,
        0.061907297808805328,
        2.8865095202945668e-08,
        0.99808190369228278,
        0,
        0.99808190369228278,
        -3.0710961718138918e-08,
        -0.06190729780880444,
        0,
        -0.83563637733459473,
        0.46250933408737183,
        0.17880761623382568,
        1
      ],
      "name": "BezierCircle.004_11"
    },
    {
      "mesh": 5,
      "name": ""
    },
    {
      "children": [
        14
      ],
      "matrix": [
        2.4963800804300718e-08,
        0.99999999999999911,
        -3.3958290401869817e-08,
        0,
        -0.29834891571257827,
        -2.4963800804300718e-08,
        -0.95445687408762914,
        0,
        -0.95445687408762914,
        3.3958290401869817e-08,
        0.29834891571257738,
        0,
        0.74202871322631836,
        0.44833850860595703,
        -0.17820382118225098,
        1
      ],
      "name": "BezierCircle.005_12"
    },
    {
      "mesh": 6,
      "name": ""
    },
    {
      "children": [
        16
      ],
      "matrix": [
        8.1577633537222027e-11,
        0.99999999999999989,
        2.632914535699582e-09,
        0,
        0.99808185646563985,
        8.1577633537222027e-11,
        -0.061908059201543991,
        0,
        -0.061908059201543991,
        2.632914535699582e-09,
        -0.99808185646563974,
        0,
        -0.017130095511674881,
        0.41187328100204468,
        0.82278406620025635,
        1
      ],
      "name": "BezierCircle.006_13"
    },
    {
      "mesh": 7,
      "name": ""
    },
    {
      "children": [
        18
      ],
      "matrix": [
        8.4334845773526013e-08,
        0.99999999999999656,
        2.2418959050307663e-11,
        0,
        -0.99808183609214185,
        8.4171689729295451e-08,
        0.061908387662191894,
        0,
        0.061908387662191672,
        -5.2434102858212039e-09,
        0.99808183609214518,
        0,
        -0.086088120937347412,
        0.44833850860595703,
        -0.66987216472625732,
        1
      ],
      "name": "BezierCircle.007_14"
    },
    {
      "mesh": 8,
      "name": ""
    }
  ],
  "scene": 0,
  "scenes": [
    {
      "name": "OSG_Scene",
      "nodes": [
        0
      ]
    }
  ]
}

