{
  "accessors": [
    {
      "bufferView": 2,
      "componentType": 5126,
      "count": 41880,
      "max": [
        0.31922999024391174,
        0.39838001132011414,
        2.5684900283813477
      ],
      "min": [
        -0.31624999642372131,
        -0.35973000526428223,
        -0.012939999811351299
      ],
      "type": "VEC3"
    },
    {
      "bufferView": 2,
      "byteOffset": 502560,
      "componentType": 5126,
      "count": 41880,
      "max": [
        1,
        1,
        1
      ],
      "min": [
        -1,
        -1,
        -1
      ],
      "type": "VEC3"
    },
    {
      "bufferView": 3,
      "componentType": 5126,
      "count": 41880,
      "max": [
        1,
        0.99998378753662109,
        0.99999165534973145,
        1
      ],
      "min": [
        -1,
        -0.99999624490737915,
        -0.99997961521148682,
        -1
      ],
      "type": "VEC4"
    },
    {
      "bufferView": 1,
      "componentType": 5126,
      "count": 41880,
      "max": [
        0.98548001050949097,
        0.9878699779510498
      ],
      "min": [
        0.00042999998549930751,
        0.00042999998549930751
      ],
      "type": "VEC2"
    },
    {
      "bufferView": 0,
      "componentType": 5125,
      "count": 237156,
      "max": [
        41879
      ],
      "min": [
        0
      ],
      "type": "SCALAR"
    },
    {
      "bufferView": 2,
      "byteOffset": 1005120,
      "componentType": 5126,
      "count": 40077,
      "max": [
        0.32216998934745789,
        0.40132001042366028,
        2.57138991355896
      ],
      "min": [
        -0.31918999552726746,
        -0.36261999607086182,
        -0.015939999371767044
      ],
      "type": "VEC3"
    },
    {
      "bufferView": 2,
      "byteOffset": 1486044,
      "componentType": 5126,
      "count": 40077,
      "max": [
        1,
        1,
        1
      ],
      "min": [
        -1,
        -1,
        -1
      ],
      "type": "VEC3"
    },
    {
      "bufferView": 3,
      "byteOffset": 670080,
      "componentType": 5126,
      "count": 40077,
      "max": [
        1,
        0.99998712539672852,
        0.99999517202377319,
        1
      ],
      "min": [
        -1,
        -0.99994033575057983,
        -0.9999995231628418,
        -1
      ],
      "type": "VEC4"
    },
    {
      "bufferView": 1,
      "byteOffset": 335040,
      "componentType": 5126,
      "count": 40077,
      "max": [
        0.98548001050949097,
        0.9878699779510498
      ],
      "min": [
        0.00042999998549930751,
        0.00042999998549930751
      ],
      "type": "VEC2"
    },
    {
      "bufferView": 0,
      "byteOffset": 948624,
      "componentType": 5125,
      "count": 226500,
      "max": [
        40076
      ],
      "min": [
        0
      ],
      "type": "SCALAR"
    }
  ],
  "asset": {
    "extras": {
      "author": "chestylarue (https://sketchfab.com/chestylarue)",
      "license": "CC-BY-4.0 (http://creativecommons.org/licenses/by/4.0/)",
      "source": "https://sketchfab.com/models/c13901c2896240d8b9dc8a7d0fd8716c",
      "title": "Rick Sanchez (Vrchat version)"
    },
    "generator": "Sketchfab-3.32.5",
    "version": "2.0"
  },
  "bufferViews": [
    {
      "buffer": 0,
      "byteLength": 1854624,
      "byteOffset": 0,
      "name": "floatBufferViews",
      "target": 34963
    },
    {
      "buffer": 0,
      "byteLength": 655656,
      "byteOffset": 1854624,
      "byteStride": 8,
      "name": "floatBufferViews",
      "target": 34962
    },
    {
      "buffer": 0,
      "byteLength": 1966968,
      "byteOffset": 2510280,
      "byteStride": 12,
      "name": "floatBufferViews",
      "target": 34962
    },
    {
      "buffer": 0,
      "byteLength": 1311312,
      "byteOffset": 4477248,
      "byteStride": 16,
      "name": "floatBufferViews",
      "target": 34962
    }
  ],
  "buffers": [
    {
      "byteLength": 5788560,
      "uri": "scene.bin"
    }
  ],
  "extensionsRequired": [
    "KHR_materials_pbrSpecularGlossiness"
  ],
  "extensionsUsed": [
    "KHR_materials_pbrSpecularGlossiness"
  ],
  "images": [
    {
      "uri": "textures/Body_diffuse.png"
    }
  ],
  "materials": [
    {
      "doubleSided": true,
      "emissiveFactor": [
        0,
        0,
        0
      ],
      "extensions": {
        "KHR_materials_pbrSpecularGlossiness": {
          "diffuseFactor": [
            1,
            1,
            1,
            1
          ],
          "diffuseTexture": {
            "index": 0,
            "texCoord": 0
          },
          "glossinessFactor": 0,
          "specularFactor": [
            0,
            0,
            0
          ]
        }
      },
      "name": "Body"
    },
    {
      "doubleSided": false,
      "emissiveFactor": [
        0,
        0,
        0
      ],
      "extensions": {
        "KHR_materials_pbrSpecularGlossiness": {
          "diffuseFactor": [
            0,
            0,
            0,
            1
          ],
          "glossinessFactor": 0,
          "specularFactor": [
            0,
            0,
            0
          ]
        }
      },
      "name": "outline"
    }
  ],
  "meshes": [
    {
      "name": "Body_0",
      "primitives": [
        {
          "attributes": {
            "NORMAL": 1,
            "POSITION": 0,
            "TANGENT": 2,
            "TEXCOORD_0": 3
          },
          "indices": 4,
          "material": 0,
          "mode": 4
        }
      ]
    },
    {
      "name": "Body_1",
      "primitives": [
        {
          "attributes": {
            "NORMAL": 6,
            "POSITION": 5,
            "TANGENT": 7,
            "TEXCOORD_0": 8
          },
          "indices": 9,
          "material": 1,
          "mode": 4
        }
      ]
    }
  ],
  "nodes": [
    {
      "children": [
        1
      ],
      "name": "RootNode (gltf orientation matrix)",
      "rotation": [
        -0.70710678118654746,
        -0,
        -0,
        0.70710678118654757
      ]
    },
    {
      "children": [
        2
      ],
      "name": "RootNode (model correction matrix)"
    },
    {
      "children": [
        3
      ],
      "name": "Root"
    },
    {
      "children": [
        4,
        5
      ],
      "name": "Body"
    },
    {
      "mesh": 0,
      "name": "Body_0"
    },
    {
      "mesh": 1,
      "name": "Body_1"
    }
  ],
  "samplers": [
    {
      "magFilter": 9729,
      "minFilter": 9987,
      "wrapS": 10497,
      "wrapT": 10497
    }
  ],
  "scene": 0,
  "scenes": [
    {
      "name": "OSG_Scene",
      "nodes": [
        0
      ]
    }
  ],
  "textures": [
    {
      "sampler": 0,
      "source": 0
    }
  ]
}

